<svg width="65" height="65" viewBox="0 0 65 65" fill="none" xmlns="http://www.w3.org/2000/svg">
<path d="M64.9999 30.7052C64.9999 29.6147 64.1126 28.7274 63.0221 28.7274H61.5085L59.4697 17.5123C59.1664 15.8394 57.7114 14.6251 56.0102 14.6251H48.5714L45.8478 6.09123C45.1763 3.98711 43.2412 2.57336 41.0323 2.57336H23.9494C21.7407 2.57336 19.8054 3.98711 19.134 6.09123L16.4104 14.6251H9.00718C7.30766 14.6251 5.85291 15.8389 5.54797 17.5118L3.50898 28.7273H1.99595C0.905428 28.7273 0.0181543 29.6146 0.0181543 30.7051V32.7564C0.0181543 33.126 0.122002 33.471 0.299228 33.7673C0.110703 34.0701 0 34.426 0 34.8081V36.8597C0 37.9496 0.887274 38.8363 1.97793 38.8363H3.43166L5.65499 59.2906C5.84834 61.0785 7.35133 62.4267 9.15076 62.4267H15.4794C16.0053 62.4267 16.4315 62.0004 16.4315 61.4746C16.4315 60.9487 16.0053 60.5224 15.4794 60.5224H9.15076C8.32582 60.5224 7.63672 59.9048 7.54811 59.0853L5.34713 38.8363H40.5259C41.0519 38.8363 41.478 38.41 41.478 37.8842C41.478 37.3583 41.0519 36.932 40.5259 36.932H18.0546C18.0555 36.9076 18.0583 36.8838 18.0583 36.8591V34.7343H46.9236V36.8591C46.9236 36.8838 46.9264 36.9076 46.9272 36.932H44.9693C44.4433 36.932 44.0171 37.3583 44.0171 37.8842C44.0171 38.41 44.4433 38.8363 44.9693 38.8363H59.6348L57.4339 59.0857C57.3453 59.9048 56.6562 60.5224 55.8312 60.5224H19.9227C19.3967 60.5224 18.9706 60.9487 18.9706 61.4746C18.9706 62.0004 19.3967 62.4267 19.9227 62.4267H55.8313C57.6308 62.4267 59.1338 61.0785 59.3271 59.2911L61.5504 38.8363H63.0042C64.0948 38.8363 64.9821 37.9496 64.9821 36.8597V34.8081C64.9821 34.4384 64.8783 34.0932 64.701 33.7969C64.8893 33.4943 65 33.1384 65 32.7564L64.9999 30.7052ZM63.0956 30.7052V32.7565C63.0956 32.797 63.0626 32.83 63.0221 32.83C63.0184 32.83 63.0148 32.8306 63.0113 32.8306C63.0089 32.8306 63.0066 32.8302 63.0042 32.8302H54.9819V30.7052C54.9819 30.6805 54.9791 30.6564 54.9782 30.6317H63.0222C63.0626 30.6316 63.0956 30.6646 63.0956 30.7052ZM20.9481 6.67013C21.3667 5.35858 22.5729 4.47753 23.9495 4.47753H41.0324C42.4091 4.47753 43.6153 5.35858 44.0339 6.67013L46.5728 14.6251H43.4433L41.3633 8.10775C41.2373 7.71305 40.8706 7.44505 40.4562 7.44505H24.5258C24.1114 7.44505 23.7448 7.71292 23.6187 8.10775L21.5387 14.6251H18.4093L20.9481 6.67013ZM7.42141 17.8529C7.56131 17.086 8.22807 16.5294 9.00718 16.5294H24.6657C25.1916 16.5294 25.6178 16.1031 25.6178 15.5773C25.6178 15.0514 25.1916 14.6251 24.6657 14.6251H23.5376L25.2213 9.34935H39.7604L41.4442 14.6251H29.109C28.5831 14.6251 28.1569 15.0514 28.1569 15.5773C28.1569 16.1031 28.5831 16.5294 29.109 16.5294H56.0102C56.7902 16.5294 57.457 17.0856 57.596 17.8524L59.573 28.7274H5.44437L7.42141 17.8529ZM1.92245 30.7052C1.92245 30.6647 1.95546 30.6317 1.99595 30.6317H10.0039C10.003 30.6564 10.0002 30.6805 10.0002 30.7052V32.8302H1.99963C1.99837 32.8302 1.99722 32.83 1.99595 32.83C1.95546 32.83 1.92245 32.797 1.92245 32.7565V30.7052ZM1.90429 36.8597V34.8081C1.90429 34.7668 1.93667 34.7345 1.97793 34.7345H10.0001V36.8591C10.0001 36.8838 10.0029 36.9076 10.0038 36.932H1.97793C1.9373 36.932 1.90429 36.8995 1.90429 36.8597ZM11.9752 36.932C11.936 36.9305 11.9045 36.8986 11.9045 36.8591V30.7052C11.9045 30.6647 11.9375 30.6317 11.978 30.6317H16.0805C16.121 30.6317 16.154 30.6647 16.154 30.7052V36.8591C16.154 36.8986 16.1224 36.9305 16.0833 36.932H11.9752ZM18.0583 32.8299V30.7051C18.0583 30.6804 18.0555 30.6562 18.0546 30.6316H46.9274C46.9265 30.6562 46.9237 30.6804 46.9237 30.7051V32.8299H18.0583ZM48.8279 36.8591V30.7052C48.8279 30.6647 48.8609 30.6317 48.9012 30.6317H53.0038C53.0443 30.6317 53.0774 30.6647 53.0774 30.7052V36.8591C53.0774 36.8986 53.0457 36.9305 53.0066 36.932H48.8984C48.8595 36.9305 48.8279 36.8986 48.8279 36.8591ZM63.0777 36.8597C63.0777 36.8995 63.0447 36.932 63.0041 36.932H54.9781C54.979 36.9076 54.9818 36.8838 54.9818 36.8591V34.7345H63.0041C63.0453 34.7345 63.0777 34.7668 63.0777 34.8081V36.8597Z" fill="#E8092E"/>
<path d="M12.5963 50.7789C11.9708 50.7789 11.3938 51.1188 11.0907 51.6658C10.7875 52.2129 10.805 52.8823 11.1365 53.4126L12.5886 55.7358C12.9995 56.3933 13.7078 56.7858 14.4832 56.7858H20.5773C21.2663 56.7858 21.9284 56.4598 22.3481 55.9138L24.2415 53.4524H40.74L42.6333 55.9138C43.0533 56.4598 43.7153 56.7857 44.4041 56.7857H50.4982C51.2735 56.7857 51.9818 56.3932 52.3929 55.7357L53.8447 53.4126C54.1763 52.8822 54.1938 52.2129 53.8907 51.6658C53.5874 51.1187 53.0105 50.7789 52.3851 50.7789H48.0513L47.3643 49.6798L48.0513 48.5806H52.3851C53.0106 48.5806 53.5875 48.2408 53.8907 47.6937C54.1938 47.1467 54.1763 46.4773 53.8448 45.947L52.3928 43.6239C51.9818 42.9664 51.2735 42.5739 50.4982 42.5739H44.4041C43.7153 42.5739 43.0532 42.8997 42.6333 43.4459L40.74 45.9073H24.2413L22.3481 43.446C21.9281 42.8999 21.2662 42.5739 20.5772 42.5739H14.4831C13.7078 42.5739 12.9994 42.9664 12.5883 43.6239L11.1366 45.9469C10.805 46.4773 10.7875 47.1466 11.0907 47.6936C11.394 48.2406 11.971 48.5805 12.5963 48.5805H16.9301L17.6172 49.6797L16.9301 50.7788H12.5963V50.7789ZM18.4158 51.9946L19.3774 50.4561C19.672 49.9846 19.672 49.3751 19.3774 48.9033L18.4157 47.3648C18.1463 46.9337 17.6819 46.6763 17.1735 46.6763H12.9262L14.2032 44.6332C14.264 44.536 14.3686 44.478 14.4831 44.478H20.5772C20.6789 44.478 20.7765 44.5261 20.8387 44.6067L22.7872 47.1398C23.1109 47.5603 23.6209 47.8114 24.1515 47.8114H40.83C41.3606 47.8114 41.8705 47.5603 42.1945 47.1396L44.1426 44.6069C44.2047 44.5263 44.3024 44.478 44.4042 44.478H50.4984C50.6127 44.478 50.7175 44.536 50.778 44.6332L52.0552 46.6763H47.8076C47.2993 46.6763 46.8349 46.9337 46.5654 47.3648L45.6037 48.9035C45.3092 49.3751 45.3092 49.9846 45.6038 50.4561L46.5655 51.9946C46.8349 52.4258 47.2993 52.6831 47.8076 52.6831H52.0549L50.7779 54.7263C50.7171 54.8234 50.6125 54.8814 50.4981 54.8814H44.404C44.3022 54.8814 44.2046 54.8333 44.1423 54.7527L42.1941 52.2199C41.8704 51.7993 41.3604 51.5481 40.8298 51.5481H24.1513C23.6207 51.5481 23.1107 51.7993 22.787 52.22L20.8385 54.7528C20.7765 54.8333 20.6788 54.8814 20.5771 54.8814H14.483C14.3685 54.8814 14.2637 54.8234 14.2032 54.7264L12.926 52.6831H17.1734C17.6819 52.6832 18.1463 52.4258 18.4158 51.9946Z" fill="#E8092E"/>
</svg>
