<svg width="65" height="65" viewBox="0 0 65 65" fill="none" xmlns="http://www.w3.org/2000/svg">
<path d="M42.0615 52.4897C41.5357 52.4897 41.1094 52.9161 41.1094 53.4419C41.1094 53.9677 41.5357 54.394 42.0615 54.394H45.9088C46.4347 54.394 46.861 53.9677 46.861 53.4419C46.861 52.9161 46.4347 52.4897 45.9088 52.4897H42.0615Z" fill="#E8092E"/>
<path d="M27.8092 52.4897H23.9619C23.4361 52.4897 23.0098 52.9161 23.0098 53.4419C23.0098 53.9677 23.4361 54.394 23.9619 54.394H27.8092C28.3351 54.394 28.7614 53.9677 28.7614 53.4419C28.7614 52.9161 28.3351 52.4897 27.8092 52.4897Z" fill="#E8092E"/>
<path d="M56.737 58.2981C57.2629 58.2981 57.6892 57.8718 57.6892 57.346V50.5832C57.6892 46.411 54.8677 42.765 50.8276 41.7168L40.3762 39.0071V35.3491C43.6244 33.5386 45.8839 30.1605 46.1249 26.2449H47.2469C48.9033 26.2449 50.251 24.8973 50.251 23.2408V21.1889C50.251 20.5107 50.0235 19.8854 49.6429 19.3821C50.0188 18.982 50.251 18.4455 50.251 17.8547V16.316C50.251 15.1456 49.346 14.1842 48.1991 14.0909V13.2636C48.1991 5.95004 42.2491 0 34.9356 0C27.6221 0 21.6721 5.95004 21.6721 13.2636V14.0909C20.5251 14.1846 19.6198 15.1458 19.6198 16.316V17.8547C19.6198 18.4454 19.852 18.9818 20.2279 19.3818C19.8473 19.8852 19.6201 20.5107 19.6201 21.189V23.2409C19.6201 24.8973 20.9677 26.245 22.6242 26.245H23.7462C23.9872 30.1608 26.2467 33.5387 29.4949 35.3493V39.0079L20.2167 41.4133L18.1545 40.1248C17.6247 39.7922 16.9554 39.7735 16.4078 40.0762C15.8598 40.3792 15.5192 40.9569 15.5192 41.5836V43.5138C14.6782 44.2074 13.9682 45.0445 13.4224 45.9828L13.3202 45.9191V41.5836C13.3202 40.9574 12.9801 40.38 12.4324 40.0768C11.8849 39.7735 11.215 39.7918 10.6852 40.1238L8.36409 41.5746C7.70508 41.9843 7.31152 42.6928 7.31152 43.47V49.5663C7.31152 50.253 7.63652 50.9146 8.18344 51.3379L10.6454 53.2312V55.4937C10.6454 56.0196 11.0717 56.4459 11.5976 56.4459C12.1234 56.4459 12.5497 56.0196 12.5497 55.4937V53.1413C12.5497 52.6089 12.2981 52.0984 11.8784 51.7772L9.34684 49.8304C9.26482 49.7669 9.21595 49.6683 9.21595 49.5664V43.4701C9.21595 43.3558 9.27333 43.2518 9.37159 43.1908L11.416 41.9128V46.1616C11.416 46.6697 11.6726 47.1341 12.104 47.4048L13.6427 48.365C14.1147 48.6606 14.7247 48.6605 15.1958 48.3656L16.736 47.4035C17.1665 47.1336 17.4235 46.6692 17.4235 46.1614V41.9133L19.4688 43.1912C19.5643 43.2508 19.6236 43.3577 19.6236 43.47V49.5663C19.6236 49.6677 19.5747 49.766 19.4937 49.8285L16.9629 51.7757C16.5406 52.0989 16.2885 52.6092 16.2885 53.1412V63.0957H12.5497V59.9371C12.5497 59.4113 12.1234 58.985 11.5976 58.985C11.0717 58.985 10.6454 59.4113 10.6454 59.9371V64.0479C10.6454 64.5737 11.0717 65 11.5976 65H56.737C57.2629 65 57.6892 64.5737 57.6892 64.0479V61.7894C57.6892 61.2635 57.2629 60.8372 56.737 60.8372C56.2112 60.8372 55.7849 61.2635 55.7849 61.7894V63.0957H49.6613V56.3532C49.6613 55.8274 49.235 55.4011 48.7092 55.4011C48.1833 55.4011 47.757 55.8274 47.757 56.3532V57.9659H35.8878V49.2392C39.8826 48.8325 43.2268 45.8974 44.1951 41.9645L50.3495 43.5602C53.5028 44.3782 55.7174 47.1943 55.7818 50.438H52.6332C52.1073 50.438 51.681 50.8643 51.681 51.3901V55.4939C51.681 56.0197 52.1073 56.446 52.6332 56.446H55.7849V57.346C55.7849 57.8718 56.2112 58.2981 56.737 58.2981ZM48.3467 23.2408C48.3467 23.8471 47.8534 24.3406 47.2469 24.3406H46.1471V20.0892H47.2469C47.8532 20.0892 48.3467 20.5825 48.3467 21.189V23.2408ZM46.2948 13.2636V14.0816H41.0496V13.2636C41.0496 8.74301 40.1143 4.88896 38.6217 2.51875C43.0813 4.05285 46.2948 8.28978 46.2948 13.2636ZM34.9631 1.90468C34.9669 1.90468 34.9705 1.9048 34.9742 1.9048C35.9054 1.91001 36.9299 3.03761 37.716 4.92426C38.6377 7.13616 39.1453 10.0977 39.1453 13.2636V14.0816H30.7901V13.2636C30.7901 10.0979 31.2977 7.13629 32.2193 4.92426C33.0059 3.03634 34.0312 1.90836 34.9631 1.90468ZM31.3311 2.49082C29.8283 4.85875 28.8858 8.72523 28.8858 13.2634V14.0815H23.5764V13.2634C23.5764 8.25944 26.829 4.00118 31.3311 2.49082ZM21.5244 23.2408V21.1889C21.5244 20.5825 22.0178 20.0891 22.6242 20.0891H23.724V24.3405H22.6242C22.0179 24.3406 21.5244 23.8473 21.5244 23.2408ZM25.6283 25.5492V20.0891H26.9386C27.4644 20.0891 27.8908 19.6628 27.8908 19.1369C27.8908 18.6111 27.4644 18.1848 26.9386 18.1848H21.8554C21.6727 18.1848 21.5241 18.0366 21.5241 17.8547V16.316C21.5241 16.134 21.6727 15.9859 21.8554 15.9859H48.0166C48.1987 15.9859 48.3467 16.1341 48.3467 16.316V17.8547C48.3467 18.0367 48.1987 18.1848 48.0166 18.1848H31.382C30.8561 18.1848 30.4298 18.6111 30.4298 19.1369C30.4298 19.6628 30.8561 20.0891 31.382 20.0891H44.243V25.5492C44.243 30.6813 40.0677 34.8565 34.9356 34.8565C29.8036 34.8565 25.6283 30.6813 25.6283 25.5492ZM34.9356 36.7608C36.1709 36.7608 37.3598 36.5595 38.472 36.1889V39.7443C38.472 41.6942 36.8856 43.2806 34.9356 43.2806C32.9858 43.2806 31.3994 41.6942 31.3994 39.7443V36.1889C32.5115 36.5595 33.7004 36.7608 34.9356 36.7608ZM22.1143 59.8702H33.9835V63.0957H22.1143V59.8702ZM47.757 59.8702V63.0957H35.8878V59.8702H47.757ZM22.1143 57.9659V56.3532C22.1143 55.8274 21.6879 55.4011 21.1621 55.4011C20.6363 55.4011 20.21 55.8274 20.21 56.3532V63.0957H18.1928V53.2322L20.6557 51.3372C21.2017 50.9161 21.5279 50.2541 21.5279 49.5663V43.47C21.5279 43.3274 21.5144 43.1872 21.4886 43.0506L25.6763 41.9649C26.6447 45.8976 29.9889 48.8324 33.9835 49.239V57.9658L22.1143 57.9659ZM34.9356 47.3845C31.4021 47.3845 28.3488 44.9013 27.5192 41.4871L29.629 40.9401C30.1755 43.3664 32.3466 45.1849 34.9356 45.1849C37.525 45.1849 39.696 43.3662 40.2424 40.9396L42.3522 41.4866C41.5229 44.901 38.4692 47.3845 34.9356 47.3845ZM53.5853 54.5417V52.3423H55.7849V54.5417H53.5853Z" fill="#E8092E"/>
</svg>
