<svg width="45" height="45" viewBox="0 0 45 45" fill="none" xmlns="http://www.w3.org/2000/svg">
<g clip-path="url(#clip0_251_2089)">
<path d="M6.22061 18.3487C6.72221 18.8516 7.44361 19.098 8.15254 19.007L12.2272 18.4745C12.3306 18.4612 12.4318 18.4956 12.5051 18.5691L16.4364 22.5003L15.5677 23.3691C15.4381 23.4895 15.3569 23.6616 15.3569 23.8525C15.3569 24.2166 15.6525 24.5117 16.0166 24.5117C16.1914 24.5117 16.3591 24.4423 16.4827 24.3186L27.3641 13.4363C27.7231 13.0772 27.8983 12.5621 27.8328 12.0581L27.3011 7.98124C27.2617 7.67863 27.3671 7.36917 27.5828 7.15339L33.1273 1.6089C33.3694 1.36614 33.7141 1.26744 34.0496 1.34435L37.4833 2.13703C37.655 2.17667 37.711 2.31193 37.7271 2.36827C37.7432 2.42443 37.7671 2.56814 37.6428 2.69233L33.4787 6.85641C33.1554 7.17967 33.0238 7.63917 33.1267 8.086L33.651 10.3583C33.763 10.8481 34.1518 11.237 34.6402 11.3485L36.9142 11.8733C37.3606 11.9761 37.8201 11.8445 38.1433 11.5213L42.3078 7.35677C42.4317 7.23276 42.5754 7.25667 42.6315 7.27275C42.6879 7.28892 42.8231 7.34491 42.8628 7.51656L43.6554 10.9497C43.7325 11.2854 43.6337 11.6304 43.3904 11.873L40.8786 14.3857C40.7487 14.5061 40.6675 14.6782 40.6675 14.8694C40.6675 15.2334 40.9631 15.5286 41.3271 15.5286C41.502 15.5286 41.6697 15.4591 41.7933 15.3355L44.322 12.8058C44.8887 12.2405 45.1198 11.4362 44.94 10.6538L44.1472 7.22002C44.0123 6.63581 43.5705 6.17034 42.9942 6.00537C42.4098 5.8382 41.8042 5.99499 41.3751 6.42496L37.2102 10.5887L34.9358 10.0632L34.4108 7.78867L38.5745 3.62493C39.0047 3.19532 39.1617 2.58985 38.9944 2.00537C38.8295 1.42916 38.364 0.987334 37.7798 0.85251L34.3455 0.059736C33.564 -0.119737 32.7596 0.111152 32.1947 0.677168L26.6507 6.22122C26.1477 6.72422 25.9021 7.44572 25.9939 8.15139L26.5256 12.2283C26.5387 12.3293 26.5038 12.4325 26.432 12.5044L22.5003 16.4362L18.5693 12.5052C18.4959 12.4317 18.4614 12.3304 18.4746 12.2279L19.0075 8.15095C19.098 7.44396 18.8519 6.72247 18.3495 6.22131L16.8133 4.68498C16.5559 4.42746 16.1385 4.42755 15.8811 4.6849C15.6237 4.94242 15.6237 5.35963 15.8811 5.61706L17.4179 7.15401C17.6334 7.36899 17.7388 7.67907 17.7 7.98185L17.1673 12.0579C17.101 12.5697 17.2722 13.0725 17.6371 13.4375L21.5682 17.3686L19.9346 19.0023L18.5333 17.601C18.2759 17.3436 17.8586 17.3436 17.6011 17.601C17.3437 17.8585 17.3437 18.2757 17.6011 18.5332L19.0025 19.9345L17.3688 21.5683L13.4375 17.6369C13.0725 17.272 12.5697 17.1007 12.0573 17.1673L7.9837 17.6997C7.67942 17.7385 7.36917 17.6333 7.15357 17.4171L1.60969 11.8741C1.36659 11.631 1.26753 11.2856 1.34461 10.9505L2.13739 7.51673C2.17703 7.34517 2.31238 7.28892 2.36872 7.27284C2.42505 7.25667 2.56946 7.2325 2.69347 7.35625L6.85685 11.5215C7.17686 11.8414 7.6484 11.9762 8.08548 11.8734L10.3608 11.3485C10.8554 11.2338 11.234 10.8553 11.3489 10.3597L11.873 8.08794C11.9763 7.64848 11.8418 7.17668 11.5216 6.8565L7.35686 2.69382C7.2325 2.56928 7.25667 2.42479 7.27284 2.36845C7.2891 2.31202 7.34517 2.17676 7.51674 2.13712L10.9501 1.34452C11.2858 1.26735 11.6312 1.36632 11.8741 1.60934L13.7057 3.44177C13.9632 3.69938 14.3805 3.69947 14.638 3.44203C14.8955 3.1846 14.8956 2.76738 14.6382 2.50986L12.8063 0.677168C12.2399 0.110888 11.4353 -0.12 10.654 0.0599118L7.22019 0.852598C6.62763 0.989444 6.17368 1.42002 6.00581 2.00449C5.83794 2.58888 5.99429 3.19471 6.42443 3.62572L10.5889 7.78884L10.0635 10.0641L7.78911 10.5893L3.62529 6.42381C3.19498 5.9942 2.58897 5.83802 2.00467 6.00563C1.42011 6.1735 0.989535 6.62754 0.852689 7.2201L0.0598275 10.6543C-0.119909 11.4354 0.110892 12.2399 0.677347 12.8063L6.22061 18.3487Z" fill="white"/>
<path d="M38.7793 26.6511C38.2772 26.1478 37.5553 25.9019 36.8477 25.9934L32.7713 26.5252C32.67 26.5389 32.5669 26.5034 32.4948 26.4313L28.5638 22.5002L32.4956 18.5683C32.5674 18.4965 32.6708 18.4611 32.7713 18.4746L36.8487 19.0064C37.5541 19.0982 38.2757 18.8525 38.7784 18.3498L39.6178 17.5113C39.7415 17.3877 39.8111 17.2199 39.8111 17.045V17.0441C39.8111 16.6801 39.516 16.3854 39.1519 16.3854C38.9651 16.3854 38.7962 16.4633 38.6764 16.5883L37.8465 17.4172C37.6308 17.633 37.3213 17.7389 37.0188 17.699L32.9416 17.1673C32.4379 17.1015 31.9226 17.277 31.5635 17.6361L17.6359 31.5637C17.2769 31.9228 17.1017 32.4379 17.1671 32.9419L17.6989 37.0188C17.7383 37.3214 17.6329 37.6308 17.4172 37.8466L11.8727 43.3911C11.6306 43.6339 11.2853 43.7323 10.9504 43.6557L7.51666 42.863C7.34501 42.8233 7.28902 42.6881 7.27285 42.6317C7.25677 42.5756 7.23286 42.4319 7.35723 42.3077L11.5213 38.1436C11.8446 37.8203 11.9761 37.3608 11.8733 36.914L11.349 34.6417C11.237 34.1519 10.8482 33.763 10.3598 33.6515L8.08584 33.1267C7.63927 33.024 7.17986 33.1554 6.85669 33.4787L2.69216 37.6432C2.56824 37.7672 2.42445 37.7433 2.36846 37.7273C2.31212 37.7111 2.17686 37.6551 2.13722 37.4834L1.34462 34.0504C1.26746 33.7146 1.36624 33.3696 1.60953 33.1271L7.15349 27.5831C7.36927 27.3673 7.67882 27.2618 7.98116 27.3013L12.0584 27.8331C12.5621 27.8987 13.0774 27.7234 13.4364 27.3644L14.3074 26.4943C14.4311 26.3707 14.5006 26.2021 14.5006 26.0272C14.5006 25.6631 14.2055 25.3684 13.8414 25.3684C13.6546 25.3684 13.4858 25.4463 13.3659 25.5714L12.5044 26.4321C12.4326 26.5039 12.3296 26.539 12.2287 26.5259L8.15132 25.994C7.44573 25.9021 6.72432 26.1479 6.22133 26.6508L0.677797 32.1941C0.111078 32.7594 -0.119987 33.5637 0.0598377 34.3461L0.852612 37.7799C0.987524 38.3641 1.42926 38.8296 2.00556 38.9946C2.59003 39.1615 3.19543 39.0047 3.62468 38.575L7.78965 34.4112L10.064 34.9367L10.5891 37.2113L6.42532 41.375C5.9951 41.8046 5.83812 42.4101 6.00538 42.9945C6.17035 43.5708 6.63582 44.0126 7.22003 44.1474L10.6544 44.9403C10.8291 44.9803 11.0047 45 11.1786 45C11.7834 45 12.3666 44.7625 12.8053 44.3228L18.3493 38.7788C18.8523 38.2758 19.0978 37.5543 19.0061 36.8486L18.4743 32.7717C18.4612 32.6707 18.4963 32.5675 18.568 32.4957L22.4999 28.5639L26.4311 32.4949C26.5032 32.567 26.5382 32.6704 26.525 32.7718L25.993 36.8484C25.9016 37.5553 26.1475 38.2771 26.6503 38.7787L32.1938 44.3232C32.6333 44.7626 33.2161 44.9999 33.8201 44.9999C33.9945 44.9999 34.1707 44.98 34.3456 44.9397L37.7799 44.1478C38.3725 44.0108 38.8265 43.5799 38.9941 42.995C39.1618 42.4103 39.0052 41.8046 38.5752 41.3746L34.4109 37.2108L34.936 34.9359L37.2106 34.4107L41.3744 38.5755C41.8044 39.0053 42.41 39.1618 42.9948 38.9943C43.5797 38.8266 44.0105 38.3726 44.1474 37.7798L44.9393 34.3458C45.1195 33.5648 44.8891 32.7603 44.3227 32.1938L38.7793 26.6511ZM43.6551 34.0496L42.8632 37.4834C42.8237 37.6548 42.6881 37.7109 42.6318 37.7271C42.5753 37.7433 42.4311 37.7673 42.307 37.6433L38.143 33.4785C37.8188 33.1545 37.359 33.0229 36.9144 33.1266L34.6396 33.6513C34.1519 33.764 33.764 34.152 33.6512 34.6399L33.1268 36.9132C33.0229 37.3593 33.1544 37.8191 33.4785 38.1432L37.6432 42.3069C37.7673 42.4309 37.7431 42.5754 37.727 42.6316C37.7108 42.6882 37.6546 42.8237 37.4835 42.8631L34.0494 43.655C33.7141 43.7324 33.3689 43.6338 33.1261 43.3909L27.582 37.8459C27.3664 37.6309 27.2612 37.3212 27.3005 37.0182L27.8322 32.9428C27.8984 32.4383 27.7232 31.9223 27.3633 31.5625L23.4323 27.6314L25.0658 25.9979L26.4669 27.399C26.5955 27.5277 26.7643 27.5921 26.9329 27.5921C27.1016 27.5921 27.2704 27.5277 27.399 27.399C27.6565 27.1415 27.6565 26.7243 27.399 26.4668L25.998 25.0657L27.6315 23.4322L31.5626 27.3633C31.9224 27.7231 32.4383 27.8985 32.9423 27.8322L37.0174 27.3005C37.3211 27.2608 37.6309 27.3664 37.8465 27.5826L43.3908 33.1259C43.6338 33.3689 43.7325 33.7142 43.6551 34.0496Z" fill="white"/>
<path d="M26.4666 17.6007L17.6003 26.467C17.3429 26.7246 17.3429 27.1418 17.6003 27.3993C17.729 27.528 17.8977 27.5923 18.0664 27.5923C18.235 27.5923 18.4038 27.528 18.5325 27.3993L27.3988 18.533C27.6562 18.2755 27.6562 17.8582 27.3988 17.6007C27.1415 17.3434 26.7241 17.3434 26.4666 17.6007Z" fill="white"/>
</g>
<defs>
<clipPath id="clip0_251_2089">
<rect width="45" height="45" rx="5" fill="white"/>
</clipPath>
</defs>
</svg>
