<svg width="65" height="39" viewBox="0 0 65 39" fill="none" xmlns="http://www.w3.org/2000/svg">
<path d="M32.5965 0.196777C27.6847 0.196777 23.6895 4.41797 23.6895 9.60781C23.6895 14.7964 27.6847 19.0176 32.5965 19.0176C37.5083 19.0176 41.5035 14.7964 41.5035 9.60781C41.5035 4.41797 37.5083 0.196777 32.5965 0.196777ZM32.5965 15.209C29.7845 15.209 27.498 12.6966 27.498 9.60781C27.498 6.51904 29.7845 4.00537 32.5965 4.00537C35.4085 4.00537 37.6949 6.51904 37.6949 9.60781C37.6949 12.6966 35.4085 15.209 32.5965 15.209ZM51.562 1.4625H51.5011C47.2405 1.49805 43.8052 5.18096 43.842 9.67129C43.8788 14.14 47.3408 17.7519 51.5747 17.7519H51.6356C53.724 17.7341 55.674 16.8543 57.1251 15.2737C58.5419 13.7287 59.3125 11.6937 59.2947 9.54307C59.2579 5.07432 55.7959 1.4625 51.562 1.4625ZM54.3182 12.6979C53.5895 13.4926 52.6259 13.9344 51.6039 13.9433H51.5747C49.4279 13.9433 47.6696 12.0199 47.6506 9.63955C47.6303 7.24902 49.3721 5.28887 51.5328 5.27109H51.562C53.7088 5.27109 55.4671 7.1957 55.4861 9.57481C55.4963 10.758 55.0812 11.8676 54.3182 12.6979Z" fill="white"/>
<path d="M53.5361 18.704H49.6006C46.5728 18.704 43.8153 19.8847 41.765 21.8093C39.7693 20.6286 37.4448 19.9507 34.9629 19.9507H30.2288C27.6986 19.9507 25.3297 20.6553 23.3099 21.8779C21.2507 19.9126 18.4641 18.704 15.3994 18.704H11.4639C5.14287 18.704 0 23.8469 0 30.1679V35.0213H16.8264V38.8032H48.3653V35.0213H65V30.1679C65 23.8469 59.8571 18.704 53.5361 18.704ZM16.9978 31.2127H3.80859V30.1679C3.80859 25.9467 7.24268 22.5126 11.4639 22.5126H15.3994C17.2783 22.5126 19.0011 23.1931 20.3354 24.3217C18.6126 26.2057 17.4205 28.5823 16.9978 31.2127ZM44.5567 34.9947H20.635V33.3531C20.6332 31.2562 21.3215 29.217 22.5938 27.5501C23.4057 26.4833 24.4314 25.5977 25.6052 24.9501C26.9775 24.1909 28.5543 23.7593 30.2288 23.7593H34.9629C36.579 23.7593 38.1012 24.1605 39.438 24.8689C40.6104 25.4902 41.6421 26.3468 42.4684 27.3851C43.3639 28.5059 43.9953 29.8142 44.3155 31.2127C44.4729 31.9008 44.5567 32.6181 44.5567 33.3531V34.9947ZM61.1914 31.2127H48.1939C47.7636 28.5404 46.5397 26.1295 44.7738 24.2303C46.0916 23.1563 47.7725 22.5126 49.6006 22.5126H53.5361C57.7573 22.5126 61.1914 25.9467 61.1914 30.1679V31.2127ZM13.4253 1.46252H13.3644C9.10381 1.49807 5.66846 5.18098 5.70527 9.67131C5.74209 14.1401 9.2041 17.7519 13.438 17.7519H13.4989C15.5873 17.7341 17.5373 16.8543 18.9884 15.2738C20.4052 13.7287 21.1758 11.6937 21.158 9.54309C21.1212 5.07434 17.6592 1.46252 13.4253 1.46252ZM16.1814 12.6979C15.4527 13.4926 14.4892 13.9344 13.4672 13.9433H13.438C11.2912 13.9433 9.53291 12.0199 9.51387 9.63958C9.49356 7.24905 11.2354 5.28889 13.3961 5.27112H13.4253C15.5721 5.27112 17.3304 7.19573 17.3494 9.57483C17.3596 10.758 16.9444 11.8676 16.1814 12.6979Z" fill="white"/>
</svg>
