<svg width="45" height="45" viewBox="0 0 45 45" fill="none" xmlns="http://www.w3.org/2000/svg">
<path d="M41.3215 35.3355H40.8148L37.4139 4.15986H37.6485C38.049 4.15986 38.428 3.98549 38.6885 3.6813C38.9493 3.37702 39.0636 2.97545 39.002 2.5788L38.8033 1.30878C38.6848 0.550459 38.042 0 37.275 0H14.8444C14.4803 0 14.1853 0.295049 14.1853 0.65918C14.1853 1.02331 14.4803 1.31836 14.8444 1.31836H37.275C37.3864 1.31836 37.4836 1.40177 37.5008 1.51251L37.6993 2.78174C37.7002 2.78754 37.703 2.80538 37.6874 2.82349C37.6719 2.8415 37.655 2.8415 37.6485 2.8415H7.35088C7.34446 2.8415 7.32741 2.8415 7.31203 2.82349C7.29639 2.80538 7.2992 2.78763 7.29999 2.78253L7.49862 1.51251C7.51585 1.40177 7.61297 1.31836 7.72441 1.31836H11.7683C12.1324 1.31836 12.4274 1.02331 12.4274 0.65918C12.4274 0.295049 12.1324 0 11.7683 0H7.72441C6.95739 0 6.31465 0.550459 6.196 1.30878L5.99728 2.57959C5.93584 2.97545 6.0501 3.37702 6.31078 3.6813C6.57138 3.98549 6.95036 4.15986 7.35079 4.15986H7.58546L4.18462 35.3355H3.67793C2.92286 35.3355 2.30859 35.9498 2.30859 36.7049V38.1261C2.30859 38.8811 2.92286 39.4954 3.67793 39.4954H14.7381V42.5654C14.7381 43.9079 15.8302 45 17.1726 45H18.6826C19.0467 45 19.3418 44.705 19.3418 44.3408C19.3418 43.9767 19.0467 43.6816 18.6826 43.6816H17.1727C16.5572 43.6816 16.0565 43.1809 16.0565 42.5654V39.4954H28.943V42.5654C28.943 43.1809 28.4423 43.6816 27.8268 43.6816H21.7589C21.3947 43.6816 21.0997 43.9767 21.0997 44.3408C21.0997 44.705 21.3947 45 21.7589 45H27.8268C29.1692 45 30.2613 43.9079 30.2613 42.5654V39.4954H34.6164C34.9805 39.4954 35.2756 39.2004 35.2756 38.8362C35.2756 38.4721 34.9805 38.1771 34.6164 38.1771H3.67793C3.6498 38.1771 3.62695 38.1542 3.62695 38.1261V36.7049C3.62695 36.6768 3.6498 36.6539 3.67793 36.6539H41.3215C41.3496 36.6539 41.3725 36.6768 41.3725 36.7049V38.1261C41.3725 38.1542 41.3496 38.1771 41.3215 38.1771H37.6925C37.3284 38.1771 37.0333 38.4721 37.0333 38.8362C37.0333 39.2004 37.3284 39.4954 37.6925 39.4954H41.3215C42.0766 39.4954 42.6908 38.8811 42.6908 38.1261V36.7049C42.6908 35.9498 42.0766 35.3355 41.3215 35.3355ZM39.4886 35.3355H36.9893L34.2685 4.15986H36.0877L39.4886 35.3355ZM15.1691 4.15986H16.9452L15.7362 35.3355H13.1844L15.1691 4.15986ZM11.8634 35.3355H9.33352L12.0543 4.15986H13.8481L11.8634 35.3355ZM18.2645 4.15986H20.0778L19.5725 35.3355H17.0555L18.2645 4.15986ZM21.3963 4.15986H23.6031L24.1084 35.3355H20.891L21.3963 4.15986ZM24.9216 4.15986H26.7349L27.9439 35.3355H25.4269L24.9216 4.15986ZM28.0542 4.15986H29.8303L31.815 35.3355H29.2632L28.0542 4.15986ZM31.1513 4.15986H32.9452L35.6659 35.3355H33.136L31.1513 4.15986ZM8.91173 4.15986H10.7309L8.01015 35.3355H5.5108L8.91173 4.15986Z" fill="white"/>
</svg>
