<svg width="65" height="66" viewBox="0 0 65 66" fill="none" xmlns="http://www.w3.org/2000/svg">
<path d="M64.9999 31.2212C64.9999 30.1307 64.1126 29.2434 63.0221 29.2434H61.5085L59.4697 18.0283C59.1664 16.3554 57.7114 15.1411 56.0102 15.1411H48.5714L45.8478 6.60722C45.1763 4.5031 43.2412 3.08936 41.0323 3.08936H23.9494C21.7407 3.08936 19.8054 4.5031 19.134 6.60722L16.4104 15.1411H9.00718C7.30766 15.1411 5.85291 16.3549 5.54797 18.0278L3.50898 29.2433H1.99595C0.905428 29.2433 0.0181543 30.1306 0.0181543 31.2211V33.2724C0.0181543 33.642 0.122002 33.987 0.299228 34.2833C0.110703 34.5861 0 34.942 0 35.3241V37.3756C0 38.4655 0.887274 39.3523 1.97793 39.3523H3.43166L5.65499 59.8066C5.84834 61.5945 7.35133 62.9427 9.15076 62.9427H15.4794C16.0053 62.9427 16.4315 62.5164 16.4315 61.9905C16.4315 61.4647 16.0053 61.0384 15.4794 61.0384H9.15076C8.32582 61.0384 7.63672 60.4208 7.54811 59.6013L5.34713 39.3523H40.5259C41.0519 39.3523 41.478 38.926 41.478 38.4002C41.478 37.8743 41.0519 37.448 40.5259 37.448H18.0546C18.0555 37.4236 18.0583 37.3998 18.0583 37.3751V35.2503H46.9236V37.3751C46.9236 37.3998 46.9264 37.4236 46.9272 37.448H44.9693C44.4433 37.448 44.0171 37.8743 44.0171 38.4002C44.0171 38.926 44.4433 39.3523 44.9693 39.3523H59.6348L57.4339 59.6017C57.3453 60.4208 56.6562 61.0384 55.8312 61.0384H19.9227C19.3967 61.0384 18.9706 61.4647 18.9706 61.9905C18.9706 62.5164 19.3967 62.9427 19.9227 62.9427H55.8313C57.6308 62.9427 59.1338 61.5945 59.3271 59.8071L61.5504 39.3523H63.0042C64.0948 39.3523 64.9821 38.4655 64.9821 37.3756V35.3241C64.9821 34.9544 64.8783 34.6092 64.701 34.3129C64.8893 34.0103 65 33.6544 65 33.2724L64.9999 31.2212ZM63.0956 31.2212V33.2725C63.0956 33.313 63.0626 33.346 63.0221 33.346C63.0184 33.346 63.0148 33.3465 63.0113 33.3465C63.0089 33.3465 63.0066 33.3462 63.0042 33.3462H54.9819V31.2212C54.9819 31.1965 54.9791 31.1723 54.9782 31.1477H63.0222C63.0626 31.1476 63.0956 31.1806 63.0956 31.2212ZM20.9481 7.18613C21.3667 5.87457 22.5729 4.99352 23.9495 4.99352H41.0324C42.4091 4.99352 43.6153 5.87457 44.0339 7.18613L46.5728 15.1411H43.4433L41.3633 8.62374C41.2373 8.22904 40.8706 7.96105 40.4562 7.96105H24.5258C24.1114 7.96105 23.7448 8.22892 23.6187 8.62374L21.5387 15.1411H18.4093L20.9481 7.18613ZM7.42141 18.3689C7.56131 17.602 8.22807 17.0454 9.00718 17.0454H24.6657C25.1916 17.0454 25.6178 16.6191 25.6178 16.0933C25.6178 15.5674 25.1916 15.1411 24.6657 15.1411H23.5376L25.2213 9.86534H39.7604L41.4442 15.1411H29.109C28.5831 15.1411 28.1569 15.5674 28.1569 16.0933C28.1569 16.6191 28.5831 17.0454 29.109 17.0454H56.0102C56.7902 17.0454 57.457 17.6016 57.596 18.3684L59.573 29.2434H5.44437L7.42141 18.3689ZM1.92245 31.2212C1.92245 31.1807 1.95546 31.1477 1.99595 31.1477H10.0039C10.003 31.1723 10.0002 31.1965 10.0002 31.2212V33.3462H1.99963C1.99837 33.3462 1.99722 33.346 1.99595 33.346C1.95546 33.346 1.92245 33.313 1.92245 33.2725V31.2212ZM1.90429 37.3756V35.3241C1.90429 35.2828 1.93667 35.2505 1.97793 35.2505H10.0001V37.3751C10.0001 37.3998 10.0029 37.4236 10.0038 37.448H1.97793C1.9373 37.448 1.90429 37.4155 1.90429 37.3756ZM11.9752 37.448C11.936 37.4465 11.9045 37.4146 11.9045 37.3751V31.2212C11.9045 31.1807 11.9375 31.1477 11.978 31.1477H16.0805C16.121 31.1477 16.154 31.1807 16.154 31.2212V37.3751C16.154 37.4146 16.1224 37.4465 16.0833 37.448H11.9752ZM18.0583 33.3459V31.2211C18.0583 31.1963 18.0555 31.1722 18.0546 31.1476H46.9274C46.9265 31.1722 46.9237 31.1963 46.9237 31.2211V33.3459H18.0583ZM48.8279 37.3751V31.2212C48.8279 31.1807 48.8609 31.1477 48.9012 31.1477H53.0038C53.0443 31.1477 53.0774 31.1807 53.0774 31.2212V37.3751C53.0774 37.4146 53.0457 37.4465 53.0066 37.448H48.8984C48.8595 37.4465 48.8279 37.4146 48.8279 37.3751ZM63.0777 37.3756C63.0777 37.4155 63.0447 37.448 63.0041 37.448H54.9781C54.979 37.4236 54.9818 37.3998 54.9818 37.3751V35.2505H63.0041C63.0453 35.2505 63.0777 35.2828 63.0777 35.3241V37.3756Z" fill="#E8092E"/>
<path d="M12.5963 51.2949C11.9708 51.2949 11.3938 51.6348 11.0907 52.1818C10.7875 52.7289 10.805 53.3983 11.1365 53.9286L12.5886 56.2518C12.9995 56.9093 13.7078 57.3018 14.4832 57.3018H20.5773C21.2663 57.3018 21.9284 56.9758 22.3481 56.4298L24.2415 53.9684H40.74L42.6333 56.4298C43.0533 56.9758 43.7153 57.3017 44.4041 57.3017H50.4982C51.2735 57.3017 51.9818 56.9092 52.3929 56.2517L53.8447 53.9286C54.1763 53.3982 54.1938 52.7289 53.8907 52.1818C53.5874 51.6347 53.0105 51.2949 52.3851 51.2949H48.0513L47.3643 50.1958L48.0513 49.0966H52.3851C53.0106 49.0966 53.5875 48.7568 53.8907 48.2097C54.1938 47.6627 54.1763 46.9933 53.8448 46.463L52.3928 44.1399C51.9818 43.4824 51.2735 43.0898 50.4982 43.0898H44.4041C43.7153 43.0898 43.0532 43.4157 42.6333 43.9619L40.74 46.4232H24.2413L22.3481 43.962C21.9281 43.4159 21.2662 43.0898 20.5772 43.0898H14.4831C13.7078 43.0898 12.9994 43.4824 12.5883 44.1399L11.1366 46.4629C10.805 46.9933 10.7875 47.6626 11.0907 48.2096C11.394 48.7566 11.971 49.0965 12.5963 49.0965H16.9301L17.6172 50.1956L16.9301 51.2948H12.5963V51.2949ZM18.4158 52.5106L19.3774 50.9721C19.672 50.5006 19.672 49.8911 19.3774 49.4193L18.4157 47.8808C18.1463 47.4497 17.6819 47.1923 17.1735 47.1923H12.9262L14.2032 45.1491C14.264 45.052 14.3686 44.994 14.4831 44.994H20.5772C20.6789 44.994 20.7765 45.0421 20.8387 45.1227L22.7872 47.6558C23.1109 48.0763 23.6209 48.3274 24.1515 48.3274H40.83C41.3606 48.3274 41.8705 48.0763 42.1945 47.6556L44.1426 45.1229C44.2047 45.0422 44.3024 44.994 44.4042 44.994H50.4984C50.6127 44.994 50.7175 45.052 50.778 45.1491L52.0552 47.1923H47.8076C47.2993 47.1923 46.8349 47.4497 46.5654 47.8808L45.6037 49.4195C45.3092 49.8911 45.3092 50.5006 45.6038 50.9721L46.5655 52.5106C46.8349 52.9418 47.2993 53.1991 47.8076 53.1991H52.0549L50.7779 55.2423C50.7171 55.3394 50.6125 55.3974 50.4981 55.3974H44.404C44.3022 55.3974 44.2046 55.3493 44.1423 55.2687L42.1941 52.7358C41.8704 52.3153 41.3604 52.0641 40.8298 52.0641H24.1513C23.6207 52.0641 23.1107 52.3153 22.787 52.736L20.8385 55.2688C20.7765 55.3493 20.6788 55.3974 20.5771 55.3974H14.483C14.3685 55.3974 14.2637 55.3394 14.2032 55.2424L12.926 53.1991H17.1734C17.6819 53.1992 18.1463 52.9418 18.4158 52.5106Z" fill="#E8092E"/>
</svg>
