<svg width="65" height="66" viewBox="0 0 65 66" fill="none" xmlns="http://www.w3.org/2000/svg">
<path d="M45.3239 47.8696C43.1018 47.8696 41.2939 49.6774 41.2939 51.8996C41.2939 54.1218 43.1018 55.9296 45.3239 55.9296C47.546 55.9296 49.3538 54.1218 49.3538 51.8996C49.3538 49.6774 47.546 47.8696 45.3239 47.8696ZM45.3239 54.0253C44.1519 54.0253 43.1982 53.0717 43.1982 51.8996C43.1982 50.7276 44.1518 49.7739 45.3239 49.7739C46.4961 49.7739 47.4495 50.7276 47.4495 51.8996C47.4495 53.0717 46.496 54.0253 45.3239 54.0253Z" fill="#E8092E"/>
<path d="M64.0479 52.3583H56.5257C56.532 52.2061 56.5359 52.0534 56.5359 51.8998C56.5359 45.7178 51.5064 40.6883 45.3244 40.6883C39.1423 40.6883 34.1128 45.7178 34.1128 51.8998C34.1128 52.0534 34.1167 52.2062 34.123 52.3583H31.9135V50.2323C31.9135 49.1417 31.0262 48.2544 29.9355 48.2544H18.3193V40.33C18.3193 40.1353 18.3893 39.947 18.5173 39.7992L19.4732 38.691C20.2676 37.7741 20.3539 36.427 19.6828 35.4148L18.6723 33.8913C18.5247 33.6689 18.4954 33.3888 18.5943 33.1418L19.3251 31.3113C19.3883 31.1533 19.4964 31.0217 19.6384 30.9301L20.6213 30.2953C21.0019 30.0492 21.3171 29.709 21.5318 29.313C21.7482 28.9162 21.8626 28.467 21.8626 28.0142C21.8626 27.5669 22.2264 27.2029 22.6738 27.2029H35.0645C35.3879 27.2029 35.6892 27.0388 35.8645 26.767L44.609 13.2135C45.3818 12.0157 46.694 11.3008 48.119 11.3008H52.5802C53.1061 11.3008 53.5323 10.8746 53.5323 10.3486C53.5323 9.82267 53.1061 9.39648 52.5802 9.39648H48.119C46.0442 9.39648 44.1339 10.4374 43.0089 12.1811L34.5456 25.2988H22.6738C21.1765 25.2988 19.9583 26.517 19.9583 28.0143C19.9583 28.1495 19.9243 28.2834 19.8589 28.4034C19.7948 28.5216 19.701 28.6229 19.5877 28.696L18.6057 29.3304C18.1309 29.6365 17.7684 30.0766 17.5569 30.6041L16.8257 32.4357C16.4951 33.263 16.5923 34.2007 17.0854 34.9442L18.0958 36.4673C18.2958 36.7694 18.2705 37.1712 18.0325 37.4458L17.0762 38.5543C16.6499 39.0471 16.415 39.6778 16.415 40.33V48.2544H15.8285C14.7379 48.2544 13.8506 49.1417 13.8506 50.2323V53.5674C13.8506 54.6581 14.7379 55.5453 15.8285 55.5453H18.4388C18.9648 55.5453 19.3909 55.1192 19.3909 54.5932C19.3909 54.0672 18.9648 53.641 18.4388 53.641H15.8285C15.7879 53.641 15.7549 53.608 15.7549 53.5674V50.2323C15.7549 50.1917 15.7879 50.1587 15.8285 50.1587H29.9355C29.9762 50.1587 30.0092 50.1917 30.0092 50.2323V53.5674C30.0092 53.608 29.9762 53.641 29.9355 53.641H22.882C22.3561 53.641 21.9299 54.0672 21.9299 54.5932C21.9299 55.1192 22.3561 55.5453 22.882 55.5453H29.9355C30.7813 55.5453 31.5027 55.0109 31.7849 54.2626H34.3641C35.452 59.3138 39.9527 63.1114 45.3243 63.1114C50.6959 63.1114 55.1966 59.3138 56.2845 54.2626H64.0479C64.5738 54.2626 65 53.8364 65 53.3105C65 52.7845 64.5738 52.3583 64.0479 52.3583ZM45.3244 61.2072C40.1923 61.2072 36.0171 57.0318 36.0171 51.8999C36.0171 46.7679 40.1925 42.5927 45.3244 42.5927C50.4564 42.5927 54.6316 46.7679 54.6316 51.8999C54.6316 57.0318 50.4564 61.2072 45.3244 61.2072Z" fill="#E8092E"/>
<path d="M64.0475 28.1777H49.1533C48.6274 28.1777 48.2012 28.6039 48.2012 29.1299C48.2012 29.6558 48.6274 30.082 49.1533 30.082H64.0475C64.5734 30.082 64.9996 29.6558 64.9996 29.1299C64.9996 28.6039 64.5734 28.1777 64.0475 28.1777Z" fill="#E8092E"/>
<path d="M64.0478 13.501H48.1189C47.4447 13.501 46.8236 13.8393 46.4569 14.4067L39.4751 25.2278C39.1616 25.7148 38.9961 26.2775 38.9961 26.855V28.1043C38.9961 29.1949 39.8834 30.0822 40.974 30.0822H44.7103C45.2362 30.0822 45.6624 29.656 45.6624 29.13C45.6624 28.6041 45.2362 28.1779 44.7103 28.1779H40.974C40.9328 28.1779 40.9004 28.1455 40.9004 28.1043V26.855C40.9004 26.6437 40.9612 26.4372 41.0758 26.2593L48.0566 15.4397C48.0713 15.4168 48.0923 15.4053 48.1189 15.4053H64.0478C64.5737 15.4053 64.9999 14.9791 64.9999 14.4531C64.9999 13.9272 64.5737 13.501 64.0478 13.501Z" fill="#E8092E"/>
<path d="M57.3789 34.1982H61.4827C62.0086 34.1982 62.4348 33.7721 62.4348 33.2461C62.4348 32.7201 62.0086 32.2939 61.4827 32.2939H57.3789C56.8529 32.2939 56.4268 32.7201 56.4268 33.2461C56.4268 33.7721 56.8529 34.1982 57.3789 34.1982Z" fill="#E8092E"/>
<path d="M57.0234 11.3008H64.0478C64.5737 11.3008 64.9999 10.8746 64.9999 10.3486C64.9999 9.82267 64.5737 9.39648 64.0478 9.39648H57.0234C56.4975 9.39648 56.0713 9.82267 56.0713 10.3486C56.0713 10.8746 56.4975 11.3008 57.0234 11.3008Z" fill="#E8092E"/>
<path d="M15.2954 15.91C15.6811 16.2955 16.1877 16.4884 16.6942 16.4884C17.2008 16.4884 17.7073 16.2955 18.0931 15.91L20.9947 13.0082C21.3684 12.6347 21.5742 12.1379 21.5742 11.6094C21.5742 11.0809 21.3684 10.5843 20.9949 10.2105L14.2845 3.50019C13.9109 3.12669 13.4141 2.9209 12.8856 2.9209C12.3571 2.9209 11.8605 3.12669 11.4868 3.50019L8.58508 6.40195C7.81384 7.17319 7.81384 8.42825 8.58508 9.19949L9.81602 10.4304L0.879785 19.3667C0.312559 19.9341 0 20.6885 0 21.491C0 22.2934 0.312559 23.0479 0.879912 23.615C1.44727 24.1825 2.20162 24.4951 3.00409 24.4951C3.80644 24.4951 4.56092 24.1825 5.12814 23.6151L14.0645 14.6789L15.2954 15.91ZM9.93167 7.74867L12.8334 4.84678C12.8388 4.84145 12.855 4.8252 12.8855 4.8252C12.9161 4.8252 12.9323 4.84144 12.9377 4.8469L19.648 11.5573C19.6535 11.5626 19.6697 11.5788 19.6697 11.6094C19.6697 11.6399 19.6535 11.6562 19.648 11.6615L16.7463 14.5633C16.7174 14.5922 16.6707 14.592 16.642 14.5633L9.93167 7.8529C9.90285 7.82408 9.90285 7.77736 9.93167 7.74867ZM3.78155 22.2687C3.57386 22.4764 3.29773 22.5908 3.00409 22.5908C2.71032 22.5908 2.4342 22.4764 2.22638 22.2686C2.01868 22.0609 1.9043 21.7847 1.9043 21.491C1.9043 21.1973 2.01868 20.9211 2.2265 20.7134L11.1627 11.7771L12.7179 13.3323L3.78155 22.2687Z" fill="#E8092E"/>
<path d="M12.108 23.0757C11.7361 23.4476 11.7361 24.0504 12.108 24.4223L13.5589 25.8732C13.7449 26.0591 13.9887 26.152 14.2323 26.152C14.4759 26.152 14.7197 26.0591 14.9057 25.8732C15.2775 25.5012 15.2775 24.8985 14.9057 24.5266L13.4547 23.0757C13.0827 22.7039 12.48 22.7039 12.108 23.0757Z" fill="#E8092E"/>
<path d="M16.8389 22.1284V24.1802C16.8389 24.7062 17.265 25.1324 17.791 25.1324C18.317 25.1324 18.7432 24.7062 18.7432 24.1802V22.1284C18.7432 21.6025 18.317 21.1763 17.791 21.1763C17.265 21.1763 16.8389 21.6026 16.8389 22.1284Z" fill="#E8092E"/>
<path d="M14.1651 28.7583C14.1651 28.2323 13.7389 27.8062 13.2129 27.8062H11.1611C10.6352 27.8062 10.209 28.2323 10.209 28.7583C10.209 29.2843 10.6352 29.7104 11.1611 29.7104H13.2129C13.7389 29.7104 14.1651 29.2841 14.1651 28.7583Z" fill="#E8092E"/>
<path d="M21.9048 43.1917C22.0867 43.3551 22.3141 43.4356 22.5407 43.4356C22.8016 43.4356 23.0614 43.3291 23.2493 43.1197L25.1732 40.978C25.3919 40.7347 25.7049 40.595 26.0322 40.595H27.6518C28.469 40.595 29.2371 40.2768 29.8147 39.6991L31.0686 38.4452C31.4405 38.0732 31.4405 37.4705 31.0686 37.0986C30.6967 36.7269 30.0939 36.7269 29.722 37.0986L28.4681 38.3527C28.2502 38.5708 27.9603 38.6907 27.6518 38.6907H26.0322C25.1653 38.6907 24.3359 39.0605 23.7566 39.7055L21.8328 41.8472C21.4813 42.2384 21.5135 42.8404 21.9048 43.1917Z" fill="#E8092E"/>
<path d="M26.3695 36.5475C27.1865 36.5475 27.9544 36.2294 28.5324 35.6518L29.7864 34.3978C30.1582 34.0259 30.1582 33.4231 29.7864 33.0513C29.4144 32.6795 28.8116 32.6795 28.4398 33.0513L27.186 34.3052C26.9679 34.5231 26.6779 34.6432 26.3695 34.6432H23.8105C23.2846 34.6432 22.8584 35.0694 22.8584 35.5954C22.8584 36.1214 23.2846 36.5475 23.8105 36.5475H26.3695Z" fill="#E8092E"/>
</svg>
