<svg width="65" height="66" viewBox="0 0 65 66" fill="none" xmlns="http://www.w3.org/2000/svg">
<g clip-path="url(#clip0_2_680)">
<path d="M12.3455 17.5308C11.8084 17.5308 11.373 17.9662 11.373 18.5032C11.373 19.0402 11.8085 19.4757 12.3455 19.4757C12.8826 19.4757 13.318 19.0402 13.318 18.5032C13.318 17.9662 12.8826 17.5308 12.3455 17.5308Z" fill="#E8092E"/>
<path d="M12.3594 15.6367C12.8852 15.6367 13.3115 15.2103 13.3115 14.6845V7.24658C13.3115 6.72074 12.8852 6.29443 12.3594 6.29443C11.8335 6.29443 11.4072 6.72074 11.4072 7.24658V14.6845C11.4074 15.2105 11.8335 15.6367 12.3594 15.6367Z" fill="#E8092E"/>
<path d="M9.06381 29.0918C8.27353 28.739 7.63241 29.0784 7.28786 29.2607C7.26514 29.2728 7.23873 29.2867 7.21207 29.3004C7.20446 29.2714 7.19722 29.2423 7.191 29.2174C7.0968 28.8392 6.92148 28.1351 6.13145 27.7823C5.34129 27.4295 4.70005 27.7689 4.3555 27.9512C4.30371 27.9786 4.23261 28.0162 4.18285 28.0384C3.71769 27.8693 3.19426 28.0865 2.98924 28.5454C2.77481 29.0256 2.99025 29.5886 3.47039 29.803C4.26054 30.156 4.90178 29.8165 5.24633 29.6342C5.26906 29.6221 5.29546 29.6082 5.32212 29.5945C5.32974 29.6235 5.33685 29.6526 5.34307 29.6775C5.43727 30.0557 5.61259 30.7598 6.40275 31.1126C7.19265 31.4655 7.83402 31.126 8.17857 30.9437C8.20116 30.9316 8.22757 30.9178 8.25423 30.9041C8.26172 30.933 8.26896 30.9619 8.27505 30.9866C8.36925 31.3648 8.54445 32.0689 9.33447 32.4217C9.46066 32.4781 9.59244 32.5047 9.72219 32.5047C10.0864 32.5047 10.434 32.2946 10.5921 31.9405C10.797 31.4816 10.6093 30.947 10.1731 30.7134C10.1565 30.6615 10.1371 30.5835 10.123 30.5268C10.029 30.1486 9.85397 29.4446 9.06381 29.0918Z" fill="#E8092E"/>
<path d="M13.2729 26.4619C12.776 25.7535 12.0515 25.7155 11.6622 25.6951C11.6037 25.6921 11.5235 25.6879 11.4693 25.6814C11.1568 25.2975 10.5961 25.2152 10.1848 25.5038C9.75426 25.8057 9.65003 26.3996 9.95205 26.8301C10.4489 27.5385 11.1735 27.5764 11.5627 27.5969C11.5883 27.5983 11.6181 27.5998 11.6479 27.6017C11.6395 27.6304 11.6309 27.6588 11.6234 27.6833C11.5099 28.0562 11.2988 28.7502 11.7955 29.4587C11.9808 29.7229 12.2761 29.8642 12.5759 29.8642C12.7648 29.8642 12.9555 29.8082 13.1218 29.6916C13.5333 29.403 13.6466 28.8479 13.3923 28.4234C13.4048 28.3704 13.4281 28.2936 13.4452 28.2376C13.5587 27.8643 13.7698 27.1703 13.2729 26.4619Z" fill="#E8092E"/>
<path d="M8.79281 34.4336C8.748 34.4025 8.68516 34.3526 8.63933 34.3162C8.33426 34.0736 7.76627 33.6219 6.92495 33.8233C6.08351 34.0248 5.78161 34.6846 5.6195 35.039C5.60883 35.0624 5.59639 35.0896 5.58357 35.1167C5.55983 35.0982 5.53647 35.0797 5.51641 35.0638C5.21121 34.8212 4.64335 34.3697 3.80191 34.5711C3.29054 34.6936 2.97519 35.2074 3.0977 35.7187C3.21475 36.2076 3.68968 36.5178 4.17769 36.4367C4.2225 36.4678 4.28547 36.5178 4.3313 36.5542C4.58318 36.7546 5.01418 37.0973 5.63054 37.0973C5.76067 37.0973 5.89905 37.0821 6.04568 37.0469C6.88725 36.8455 7.18902 36.1857 7.35113 35.8312C7.3618 35.8079 7.37424 35.7808 7.38693 35.7537C7.41055 35.7721 7.43378 35.7906 7.45384 35.8065C7.75891 36.0491 8.32664 36.5003 9.16821 36.2993C9.67958 36.1768 9.99493 35.663 9.87242 35.1516C9.7555 34.6627 9.28082 34.3532 8.79281 34.4336Z" fill="#E8092E"/>
<path d="M41.2949 54.3039C41.2949 56.526 43.1027 58.3338 45.3248 58.3338C47.547 58.3338 49.3548 56.526 49.3548 54.3039C49.3548 52.0817 47.547 50.2739 45.3248 50.2739C43.1027 50.2739 41.2949 52.0817 41.2949 54.3039ZM47.4505 54.3039C47.4505 55.476 46.4969 56.4295 45.3248 56.4295C44.1528 56.4295 43.1992 55.476 43.1992 54.3039C43.1992 53.1318 44.1528 52.1782 45.3248 52.1782C46.4969 52.1782 47.4505 53.1318 47.4505 54.3039Z" fill="#E8092E"/>
<path d="M56.0918 12.4233H64.0478C64.5737 12.4233 65 11.997 65 11.4712C65 10.9454 64.5737 10.519 64.0478 10.519H56.0918C55.566 10.519 55.1396 10.9454 55.1396 11.4712C55.1398 11.997 55.566 12.4233 56.0918 12.4233Z" fill="#E8092E"/>
<path d="M64.0479 54.7626H56.526C56.5321 54.6105 56.5362 54.4579 56.5362 54.3044C56.5362 52.0307 55.8582 49.8397 54.5756 47.9683C54.2783 47.5345 53.6857 47.4239 53.252 47.7211C52.8182 48.0185 52.7076 48.6111 53.0048 49.0448C54.0693 50.5979 54.6319 52.4166 54.6319 54.3043C54.6319 59.4361 50.4569 63.6111 45.3251 63.6111C40.1926 63.6111 36.0171 59.4361 36.0171 54.3043C36.0171 49.1718 40.1927 44.9963 45.3251 44.9963C46.9984 44.9963 48.6389 45.4458 50.0689 46.296C50.521 46.5647 51.1052 46.4162 51.3739 45.9641C51.6426 45.5122 51.494 44.9279 51.042 44.6592C49.3177 43.634 47.3408 43.0922 45.3251 43.0922C39.1426 43.0922 34.1128 48.1219 34.1128 54.3044C34.1128 54.4579 34.1168 54.6105 34.123 54.7626H31.914V52.6362C31.914 51.5456 31.0267 50.6584 29.9361 50.6584H19.8593V43.7228H26.3136C27.2228 43.7228 28.012 43.1066 28.2325 42.2243L29.002 39.1466C29.1506 38.5516 29.0195 37.9329 28.6421 37.4495C28.2645 36.9661 27.6963 36.6888 27.0829 36.6888H18.9072H14.4737V36.5541C14.4737 34.6115 15.7933 32.9406 17.6827 32.4911L35.2858 28.2992C35.5246 28.2424 35.7323 28.0955 35.8653 27.8892L44.6096 14.3361C45.3823 13.1384 46.6945 12.4234 48.1194 12.4234H51.6487C52.1746 12.4234 52.6009 11.9971 52.6009 11.4712C52.6009 10.9454 52.1746 10.5191 51.6487 10.5191H48.1194C46.0448 10.5191 44.1345 11.5601 43.0095 13.3037L36.042 24.1028L23.1056 11.1665C22.4414 10.5023 21.5583 10.1364 20.619 10.1364C20.2506 10.1364 19.8911 10.1936 19.5498 10.302L14.9711 2.0616C14.4333 1.09447 13.4516 0.51709 12.345 0.51709C11.2383 0.51709 10.2565 1.09447 9.71857 2.06198L0.382695 18.8678C-0.140097 19.8084 -0.126513 20.9234 0.418877 21.8504C0.96414 22.7774 1.93203 23.3307 3.00783 23.3307H21.6822C22.7577 23.3307 23.7254 22.7775 24.2709 21.8509C24.4058 21.6219 24.508 21.3812 24.5778 21.1346L28.9297 25.4866H21.3155C19.6591 25.4866 18.3115 26.8342 18.3115 28.4906V30.3841L17.2417 30.6388C14.4906 31.2934 12.5693 33.7258 12.5693 36.5543V42.761C12.5693 42.7643 12.5688 42.7674 12.5688 42.7707C12.5688 42.774 12.5693 42.7772 12.5693 42.7805V46.8646C12.5693 46.8679 12.5688 46.8711 12.5688 46.8744C12.5688 46.8777 12.5693 46.8808 12.5693 46.8841V50.6584H11.9815C10.8908 50.6584 10.0036 51.5457 10.0036 52.6362V55.9713C10.0036 57.062 10.8908 57.9492 11.9815 57.9492H18.7378C19.2637 57.9492 19.69 57.5229 19.69 56.9971C19.69 56.4712 19.2637 56.0449 18.7378 56.0449H11.9816C11.941 56.0449 11.908 56.0119 11.908 55.9713V52.6362C11.908 52.5956 11.941 52.5626 11.9816 52.5626H29.9362C29.9768 52.5626 30.0098 52.5956 30.0098 52.6362V55.9713C30.0098 56.0119 29.9768 56.0449 29.9362 56.0449H23.1812C22.6553 56.0449 22.229 56.4712 22.229 56.9971C22.229 57.5229 22.6553 57.9492 23.1812 57.9492H29.9362C30.7818 57.9492 31.5031 57.4149 31.7854 56.6669H34.3642C35.4521 61.718 39.9531 65.5155 45.3252 65.5155C50.6967 65.5155 55.1972 61.718 56.2849 56.6669H64.0479C64.5737 56.6669 65 56.2406 65 55.7147C65 55.1889 64.5737 54.7626 64.0479 54.7626ZM21.7592 12.513L34.9859 25.7396L34.4724 26.5355L33.0181 26.8818L21.2924 15.156C21.1137 14.9774 20.8716 14.8771 20.6191 14.8771C20.3666 14.8771 20.1244 14.9775 19.9458 15.156L19.2548 15.8472C19.2266 15.8754 19.179 15.8755 19.1508 15.8472L17.6992 14.3956C17.6705 14.3669 17.671 14.3198 17.699 14.2919L19.4792 12.513C19.7838 12.2084 20.1888 12.0406 20.6193 12.0406C21.0498 12.0406 21.4546 12.2084 21.7592 12.513ZM22.6438 19.7922C22.9194 20.2891 22.7259 20.7218 22.6301 20.8848C22.5342 21.0477 22.2498 21.4265 21.6822 21.4265H3.00783C2.4401 21.4265 2.1561 21.0477 2.06025 20.8848C1.9644 20.7219 1.77131 20.2894 2.0473 19.7926L11.383 2.98709C11.6669 2.47648 12.1504 2.42138 12.345 2.42138C12.5396 2.42138 13.023 2.47648 13.3068 2.98683L17.952 11.3469L16.3514 12.9463C15.5823 13.718 15.5828 14.9722 16.3525 15.7422L17.8042 17.1939C18.5752 17.9649 19.8299 17.9649 20.6011 17.1939L20.619 17.176L21.9034 18.4604L22.6438 19.7922ZM20.2158 28.4906C20.2158 27.8842 20.7091 27.3909 21.3155 27.3909H30.8342L30.8432 27.3999L20.2158 29.9307V28.4906ZM14.4736 43.7229H17.9549V45.9223H14.4736V43.7229ZM19.8593 38.5932H22.0588V41.8186H19.8593V38.5932ZM27.1411 38.6215C27.1632 38.65 27.157 38.6754 27.1545 38.6849L26.3851 41.7626C26.3768 41.7955 26.3474 41.8185 26.3135 41.8185H23.9629V38.5931H27.0829C27.0927 38.5932 27.1189 38.5932 27.1411 38.6215ZM17.955 38.5932V41.8186H14.4737V38.5932H17.955ZM14.4736 47.8265H17.9549V50.6584H14.4736V47.8265Z" fill="#E8092E"/>
<path d="M41.0771 27.3817L48.0581 16.5611C48.0726 16.5388 48.0934 16.5273 48.12 16.5273H64.0481C64.5739 16.5273 65.0002 16.101 65.0002 15.5752C65.0002 15.0494 64.5739 14.623 64.0481 14.623H48.12C47.445 14.623 46.8237 14.9616 46.4578 15.5289L39.4768 26.3493C39.163 26.8357 38.9971 27.3988 38.9971 27.9779V29.227C38.9971 30.3176 39.8845 31.205 40.9751 31.205H64.0481C64.5739 31.205 65.0002 30.7787 65.0002 30.2529C65.0002 29.727 64.5739 29.3007 64.0481 29.3007H40.9753C40.9346 29.3007 40.9015 29.2676 40.9015 29.227V27.9779C40.9015 27.766 40.9622 27.5598 41.0771 27.3817Z" fill="#E8092E"/>
<path d="M57.3789 35.3208H61.4827C62.0085 35.3208 62.4348 34.8945 62.4348 34.3687C62.4348 33.8428 62.0085 33.4165 61.4827 33.4165H57.3789C56.8531 33.4165 56.4268 33.8428 56.4268 34.3687C56.4268 34.8945 56.8531 35.3208 57.3789 35.3208Z" fill="#E8092E"/>
</g>
<defs>
<clipPath id="clip0_2_680">
<rect width="65" height="65" fill="white" transform="translate(0 0.516113)"/>
</clipPath>
</defs>
</svg>
