<svg width="45" height="45" viewBox="0 0 45 45" fill="none" xmlns="http://www.w3.org/2000/svg">
<path d="M18.9479 0H4.74307C3.4001 0 2.30762 1.09213 2.30762 2.43457V12.7283C2.30762 13.0924 2.60275 13.3875 2.9668 13.3875C3.33084 13.3875 3.62598 13.0924 3.62598 12.7283V7.00049H20.065V20.9021C20.065 20.9303 20.0422 20.9531 20.0141 20.9531H18.2765C18.2592 20.9531 18.2429 20.9442 18.2333 20.9289L17.1877 19.2567C16.74 18.5397 15.9681 18.1117 15.123 18.1117H8.56807C7.72282 18.1117 6.95105 18.5397 6.5036 19.2563L5.45709 20.9299C5.44812 20.9442 5.43187 20.9532 5.41455 20.9532H3.67783C3.64918 20.9532 3.62598 20.9304 3.62598 20.9022V15.8046C3.62598 15.4405 3.33084 15.1454 2.9668 15.1454C2.60275 15.1454 2.30762 15.4405 2.30762 15.8046V20.9022C2.30762 21.6573 2.92232 22.2716 3.67783 22.2716H5.41455C5.89048 22.2716 6.32475 22.0306 6.5755 21.6279L7.62166 19.955C7.82688 19.6262 8.18064 19.4301 8.56815 19.4301H9.02817L8.39642 34.9184C7.80764 35.375 7.32274 35.9332 6.95387 36.5791H6.87178V36.3504C6.87178 35.9864 6.57664 35.6912 6.2126 35.6912C5.84855 35.6912 5.55342 35.9864 5.55342 36.3504V36.6037C4.91973 36.7235 4.4387 37.2805 4.4387 37.9484V40.7895C4.4387 41.4575 4.91973 42.0144 5.55342 42.1343V42.3876C5.55342 42.7517 5.84855 43.0468 6.2126 43.0468C6.57664 43.0468 6.87178 42.7517 6.87178 42.3876V42.1589H6.95387C7.95617 43.9132 9.82402 45 11.8455 45C13.8671 45 15.7349 43.9132 16.7371 42.1589H16.8192V42.3876C16.8192 42.7517 17.1144 43.0468 17.4784 43.0468C17.8425 43.0468 18.1376 42.7517 18.1376 42.3876V42.1343C18.7713 42.0145 19.2523 41.4576 19.2523 40.7895V37.9484C19.2523 37.2805 18.7713 36.7235 18.1376 36.6037V36.3504C18.1376 35.9864 17.8425 35.6912 17.4784 35.6912C17.1144 35.6912 16.8192 35.9864 16.8192 36.3504V36.5791H16.7371C16.3684 35.9333 15.8836 35.3751 15.2947 34.9184L14.6629 19.4301H15.123C15.5104 19.4301 15.8642 19.6263 16.0696 19.9554L17.1149 21.627C17.3663 22.0307 17.8005 22.2717 18.2765 22.2717H20.0141C20.7691 22.2717 21.3834 21.6574 21.3834 20.9023V2.43457C21.3834 1.09213 20.2908 0 18.9479 0ZM13.9798 35.0318C13.9943 35.3878 14.1657 35.716 14.4504 35.9321C14.9321 36.2979 15.3248 36.7506 15.6178 37.2779C15.8301 37.66 16.2305 37.8973 16.6629 37.8973H17.8828C17.9109 37.8973 17.9339 37.9202 17.9339 37.9484V40.7894C17.9339 40.8176 17.9109 40.8406 17.8828 40.8406H16.6626C16.2303 40.8406 15.8301 41.0775 15.6183 41.4591C14.857 42.83 13.4114 43.6816 11.8455 43.6816C10.2796 43.6816 8.83411 42.83 8.07271 41.4589C7.86081 41.0774 7.46064 40.8405 7.0284 40.8405H5.80821C5.78009 40.8405 5.75715 40.8176 5.75715 40.7893V37.9483C5.75715 37.9201 5.78009 37.8972 5.80821 37.8972H7.02813C7.46056 37.8972 7.86107 37.6598 8.07324 37.2778C8.36627 36.7506 8.75905 36.2979 9.24069 35.9321C9.5252 35.716 9.69667 35.3879 9.71126 35.0319L10.3476 19.4298H13.3435L13.9798 35.0318ZM4.74307 1.31836H18.9479C19.5639 1.31836 20.065 1.81907 20.065 2.43457V2.84106H3.62598V2.43457C3.62598 1.81907 4.12704 1.31836 4.74307 1.31836ZM3.62598 5.68213V4.15942H20.065V5.68213H3.62598Z" fill="white"/>
<path d="M11.8456 16.4115C13.9715 16.4115 15.7011 14.682 15.7011 12.5561C15.7011 10.4302 13.9715 8.70068 11.8456 8.70068C9.71975 8.70068 7.99023 10.4302 7.99023 12.5561C7.99023 14.682 9.71983 16.4115 11.8456 16.4115ZM11.8456 10.019C13.2446 10.019 14.3827 11.1571 14.3827 12.5561C14.3827 13.955 13.2446 15.0931 11.8456 15.0931C10.4467 15.0931 9.30859 13.955 9.30859 12.5561C9.30859 11.1571 10.4468 10.019 11.8456 10.019Z" fill="white"/>
<path d="M18.044 13.1963C18.4018 13.1117 18.6233 12.7531 18.5388 12.3953C18.4542 12.0375 18.0955 11.816 17.7377 11.9006C17.3799 11.9851 17.1584 12.3438 17.243 12.7016C17.3276 13.0594 17.6862 13.2809 18.044 13.1963Z" fill="white"/>
<path d="M6.41717 12.8147C6.55802 12.4749 6.39674 12.0853 6.05694 11.9444C5.71715 11.8036 5.32751 11.9649 5.18666 12.3047C5.04582 12.6445 5.2071 13.0341 5.5469 13.1749C5.88669 13.3158 6.27633 13.1545 6.41717 12.8147Z" fill="white"/>
<path d="M9.05566 39.3691C9.05566 40.9075 10.3072 42.1591 11.8457 42.1591C13.3841 42.1591 14.6357 40.9075 14.6357 39.3691C14.6357 37.8308 13.3841 36.5791 11.8457 36.5791C10.3072 36.5791 9.05566 37.8307 9.05566 39.3691ZM13.3172 39.3691C13.3172 40.1806 12.6571 40.8407 11.8456 40.8407C11.0342 40.8407 10.3739 40.1806 10.3739 39.3691C10.3739 38.5577 11.0341 37.8975 11.8456 37.8975C12.6571 37.8975 13.3172 38.5576 13.3172 39.3691Z" fill="white"/>
<path d="M11.8457 35.0561C12.2097 35.0561 12.5049 34.761 12.5049 34.3969V32.9683C12.5049 32.6042 12.2097 32.3091 11.8457 32.3091C11.4817 32.3091 11.1865 32.6042 11.1865 32.9683V34.3969C11.1865 34.761 11.4817 35.0561 11.8457 35.0561Z" fill="white"/>
<path d="M42.0328 9.47021C42.3969 9.47021 42.692 9.17508 42.692 8.81104V2.43457C42.692 1.09213 41.5994 0 40.2565 0H26.0517C24.7088 0 23.6162 1.09213 23.6162 2.43457V20.9021C23.6162 21.6572 24.2305 22.2715 24.9855 22.2715H26.7231C27.1991 22.2715 27.6333 22.0305 27.8841 21.6279L28.9302 19.955C29.1354 19.6262 29.4892 19.43 29.8767 19.43H30.337L30.0301 26.9564C30.0153 27.3202 30.2981 27.6271 30.6619 27.6419C30.671 27.6422 30.6802 27.6424 30.6892 27.6424C31.0409 27.6424 31.3329 27.3647 31.3473 27.0101L31.6564 19.4299H34.6518L35.2885 35.0304C35.3022 35.3859 35.4731 35.7143 35.759 35.9328C36.2401 36.2976 36.633 36.7504 36.9263 37.2772C37.1381 37.6599 37.5385 37.8976 37.9714 37.8976H39.1913C39.2194 37.8976 39.2423 37.9204 39.2423 37.9485V40.7892C39.2423 40.8177 39.2199 40.8401 39.1913 40.8401H37.9714C37.5393 40.8401 37.1391 41.077 36.9266 41.4589C36.1653 42.8299 34.7198 43.6816 33.1541 43.6816C31.5884 43.6816 30.1429 42.8299 29.3812 41.4582C29.169 41.077 28.7688 40.8401 28.3368 40.8401H27.1169C27.0883 40.8401 27.0659 40.8177 27.0659 40.7892V37.9485C27.0659 37.9204 27.0888 37.8976 27.1169 37.8976H28.3368C28.7696 37.8976 29.17 37.6599 29.3817 37.2779C29.674 36.7513 30.0668 36.2987 30.551 35.9315C30.835 35.7145 31.0059 35.3861 31.0196 35.0321L31.2217 30.0838C31.2366 29.72 30.9538 29.4131 30.59 29.3983C30.2261 29.384 29.9193 29.6662 29.9044 30.03L29.7047 34.9191C29.1153 35.3759 28.6304 35.9337 28.262 36.5793H28.1803V36.3504C28.1803 35.9864 27.8851 35.6912 27.5211 35.6912C27.1571 35.6912 26.8619 35.9864 26.8619 36.3504V36.604C26.2284 36.7239 25.7475 37.2807 25.7475 37.9486V40.7892C25.7475 41.4571 26.2283 42.014 26.8619 42.1339V42.3876C26.8619 42.7517 27.1571 43.0468 27.5211 43.0468C27.8851 43.0468 28.1803 42.7517 28.1803 42.3876V42.1586H28.2625C29.2648 43.913 31.1326 45 33.1541 45C35.1758 45 37.0438 43.9128 38.0457 42.1585H38.1277V42.3875C38.1277 42.7516 38.4229 43.0467 38.7869 43.0467C39.151 43.0467 39.4461 42.7516 39.4461 42.3875V42.1338C40.0797 42.0139 40.5606 41.457 40.5606 40.7892V37.9485C40.5606 37.2807 40.0797 36.7237 39.4461 36.6039V36.3503C39.4461 35.9863 39.151 35.6912 38.7869 35.6912C38.4229 35.6912 38.1277 35.9863 38.1277 36.3503V36.5792H38.0461C37.6762 35.9322 37.1907 35.3738 36.6035 34.919L35.9712 19.43H36.4315C36.8189 19.43 37.1727 19.6262 37.3781 19.9553L38.4234 21.6269C38.6748 22.0306 39.109 22.2716 39.585 22.2716H41.3217C42.0773 22.2716 42.6919 21.6573 42.6919 20.9022V11.8872C42.6919 11.5232 42.3968 11.228 42.0327 11.228C41.6687 11.228 41.3735 11.5232 41.3735 11.8872V20.9021C41.3735 20.9303 41.3503 20.9531 41.3217 20.9531H39.585C39.5677 20.9531 39.5514 20.9442 39.5418 20.9289L38.4962 19.2567C38.0485 18.5396 37.2767 18.1116 36.4315 18.1116H29.8766C29.0314 18.1116 28.2596 18.5396 27.8121 19.2562L26.7656 20.9298C26.7566 20.9442 26.7404 20.9531 26.7231 20.9531H24.9855C24.9574 20.9531 24.9345 20.9303 24.9345 20.9021V7.00049H41.3735V8.81104C41.3736 9.17508 41.6688 9.47021 42.0328 9.47021ZM26.0517 1.31836H40.2565C40.8726 1.31836 41.3736 1.81907 41.3736 2.43457V2.84106H24.9346V2.43457C24.9346 1.81907 25.4357 1.31836 26.0517 1.31836ZM24.9346 5.68213V4.15942H41.3736V5.68213H24.9346Z" fill="white"/>
<path d="M29.2979 12.5561C29.2979 14.682 31.0274 16.4115 33.1533 16.4115C35.2792 16.4115 37.0087 14.682 37.0087 12.5561C37.0087 10.4302 35.2792 8.70068 33.1533 8.70068C31.0274 8.70068 29.2979 10.4302 29.2979 12.5561ZM35.6902 12.5561C35.6902 13.955 34.5521 15.0931 33.1532 15.0931C31.7542 15.0931 30.6161 13.955 30.6161 12.5561C30.6161 11.1571 31.7542 10.019 33.1532 10.019C34.5521 10.019 35.6902 11.1571 35.6902 12.5561Z" fill="white"/>
<path d="M39.3019 13.2196C39.6649 13.1607 39.9114 12.8188 39.8526 12.4558C39.7937 12.0929 39.4518 11.8463 39.0888 11.9052C38.7259 11.964 38.4793 12.306 38.5382 12.6689C38.597 13.0319 38.939 13.2784 39.3019 13.2196Z" fill="white"/>
<path d="M27.2082 13.2171C27.5711 13.1583 27.8177 12.8164 27.7588 12.4534C27.7 12.0904 27.3581 11.8439 26.9951 11.9027C26.6321 11.9616 26.3856 12.3035 26.4444 12.6665C26.5033 13.0294 26.8452 13.276 27.2082 13.2171Z" fill="white"/>
<path d="M30.3633 39.3691C30.3633 40.9075 31.6148 42.1591 33.1533 42.1591C34.6916 42.1591 35.9433 40.9075 35.9433 39.3691C35.9433 37.8308 34.6917 36.5791 33.1533 36.5791C31.6148 36.5791 30.3633 37.8307 30.3633 39.3691ZM33.1533 37.8975C33.9647 37.8975 34.6249 38.5576 34.6249 39.3691C34.6249 40.1806 33.9648 40.8407 33.1533 40.8407C32.3418 40.8407 31.6816 40.1806 31.6816 39.3691C31.6816 38.5576 32.3418 37.8975 33.1533 37.8975Z" fill="white"/>
<path d="M33.8125 34.3969V32.9683C33.8125 32.6042 33.5174 32.3091 33.1533 32.3091C32.7893 32.3091 32.4941 32.6042 32.4941 32.9683V34.3969C32.4941 34.761 32.7893 35.0561 33.1533 35.0561C33.5174 35.0561 33.8125 34.761 33.8125 34.3969Z" fill="white"/>
</svg>
