<svg width="45" height="45" viewBox="0 0 45 45" fill="none" xmlns="http://www.w3.org/2000/svg">
<path d="M20.5954 25.1219C21.7421 25.1219 22.675 24.189 22.675 23.0422C22.675 21.8955 21.7421 20.9624 20.5954 20.9624C19.4487 20.9624 18.5156 21.8954 18.5156 23.0422C18.5157 24.189 19.4487 25.1219 20.5954 25.1219ZM20.5954 22.2808C21.0151 22.2808 21.3568 22.6224 21.3568 23.0422C21.3568 23.4621 21.0152 23.8036 20.5954 23.8036C20.1756 23.8036 19.834 23.4621 19.834 23.0422C19.834 22.6224 20.1756 22.2808 20.5954 22.2808Z" fill="white"/>
<path d="M44.211 33.0202L41.2639 28.5411C40.4827 27.3538 39.1678 26.6449 37.7465 26.6449H25.5161V23.0425C25.5161 22.6804 25.4756 22.3278 25.4011 21.9879L35.0485 11.675V16.1906H34.3994C34.0353 16.1906 33.7402 16.4857 33.7402 16.8498C33.7402 17.2138 34.0353 17.509 34.3994 17.509H35.0274C34.0151 17.8042 33.273 18.7399 33.273 19.8462C33.273 21.1888 34.3653 22.2811 35.7079 22.2811C36.8674 22.2811 37.8716 21.4563 38.0957 20.32C38.1661 19.9628 37.9336 19.6161 37.5764 19.5457C37.2191 19.475 36.8726 19.7079 36.8022 20.065C36.6996 20.5851 36.2394 20.9627 35.7079 20.9627C35.0922 20.9627 34.5914 20.4618 34.5914 19.8462C34.5914 19.2306 35.0922 18.7297 35.7079 18.7297C35.8827 18.7297 36.0504 18.6601 36.174 18.5366C36.2977 18.413 36.367 18.2453 36.367 18.0704L36.3669 17.5089H37.0159C37.3801 17.5089 37.6751 17.2137 37.6751 16.8497C37.6751 16.4856 37.3801 16.1905 37.0159 16.1905H36.3669V11.3671C37.9827 11.0578 39.2079 9.63457 39.2079 7.92993C39.2079 5.99994 37.6378 4.42969 35.7077 4.42969C33.7776 4.42969 32.2074 5.99994 32.2074 7.92993C32.2074 8.06774 32.2163 8.20345 32.2319 8.33713L28.3536 11.9649C28.0877 12.2136 28.0738 12.6308 28.3225 12.8966C28.4524 13.0354 28.628 13.1055 28.804 13.1055C28.9653 13.1055 29.127 13.0466 29.2541 12.9277L32.695 9.7091C32.9958 10.2166 33.4208 10.6417 33.9283 10.9426L24.8757 20.6198C24.4356 19.8454 23.7919 19.2017 23.0174 18.7617L27.0085 15.0283C27.2744 14.7796 27.2884 14.3625 27.0396 14.0966C26.7908 13.8308 26.3736 13.8167 26.1079 14.0655L21.649 18.2364C21.3092 18.162 20.9568 18.1216 20.5951 18.1216C19.1736 18.1216 17.8917 18.7282 16.9926 19.6951V10.5239C16.9926 9.67087 16.2986 8.97688 15.4455 8.97688H7.05753C6.00021 8.97688 5.0698 9.65241 4.74231 10.6578L1.09485 21.8583C0.957568 22.2799 0.887959 22.7187 0.887959 23.1622V32.9893C0.377754 33.1243 0 33.5885 0 34.1404V35.9162C0 36.5734 0.534639 37.108 1.19188 37.108H3.9578C4.78213 39.1362 6.77303 40.5706 9.09369 40.5706C11.4145 40.5706 13.4055 39.136 14.2298 37.1076H25.9773C26.3414 37.1076 26.6365 36.8125 26.6365 36.4484C26.6365 36.0844 26.3414 35.7892 25.9773 35.7892H14.5824C14.6167 35.5402 14.6359 35.2866 14.6359 35.0283C14.6359 34.7699 14.6167 34.516 14.5823 34.2669H30.4176C30.3833 34.516 30.364 34.7699 30.364 35.0283C30.364 35.2865 30.3832 35.5402 30.4175 35.7892H29.0534C28.6893 35.7892 28.3942 36.0844 28.3942 36.4484C28.3942 36.8125 28.6893 37.1076 29.0534 37.1076H30.7702C31.5945 39.136 33.5855 40.5706 35.9062 40.5706C38.2269 40.5706 40.2178 39.1362 41.0421 37.108H43.808C44.4653 37.108 45 36.5734 45 35.9162V34.1404C45 33.6248 44.6702 33.1859 44.211 33.0202ZM35.7077 5.74814C36.9107 5.74814 37.8896 6.72697 37.8896 7.93002C37.8896 9.13307 36.9107 10.1119 35.7077 10.1119C34.5046 10.1119 33.5258 9.13307 33.5258 7.93002C33.5258 6.72697 34.5045 5.74814 35.7077 5.74814ZM42.5857 32.9486H41.0422C40.7238 32.1651 40.2319 31.47 39.6134 30.9124L40.3663 29.5755L42.5857 32.9486ZM26.1544 32.9486L28.963 27.9633H30.5057L27.6971 32.9486H26.1544ZM23.1357 32.9486L25.9443 27.9633H27.4499L24.6413 32.9486H23.1357ZM20.0798 32.9486L22.8885 27.9633H24.4311L21.6225 32.9486H20.0798ZM17.0612 32.9486L19.8698 27.9633H21.3754L18.5667 32.9486H17.0612ZM16.9928 27.9633H18.3567L16.9928 30.3842V27.9633ZM32.0188 27.9633H33.5243L30.7157 32.9486H29.2102L32.0188 27.9633ZM35.0375 27.9633H36.7429L35.8847 29.4865C35.2178 29.4891 34.5783 29.6099 33.9862 29.8294L35.0375 27.9633ZM38.2324 28.0052C38.6751 28.0802 39.0906 28.2561 39.449 28.5175L38.5306 30.1481C38.1449 29.9398 37.7319 29.7758 37.2983 29.6632L38.2324 28.0052ZM20.5951 19.4401C22.5816 19.4401 24.1976 21.0561 24.1976 23.0425V26.645H16.9928V23.0425C16.9928 21.0561 18.6088 19.4401 20.5951 19.4401ZM6.51894 26.0101C6.54715 26.0101 6.57009 26.033 6.57009 26.0612V26.7715C6.57009 27.1912 6.22854 27.5329 5.80869 27.5329H5.04729V26.0102H6.51894V26.0101ZM3.72894 27.5328H2.20623V26.0101H3.72894V27.5328ZM1.31836 35.7897V34.267H3.60492C3.57056 34.5161 3.55131 34.77 3.55131 35.0284C3.55131 35.2868 3.57047 35.5407 3.60492 35.7898H1.31836V35.7897ZM9.09369 39.2522C6.76459 39.2522 4.86976 37.3574 4.86976 35.0283C4.86976 32.6992 6.76459 30.8043 9.09369 30.8043C11.4227 30.8043 13.3176 32.6992 13.3176 35.0283C13.3175 37.3574 11.4227 39.2522 9.09369 39.2522ZM9.09369 29.486C6.77303 29.486 4.78213 30.9204 3.9578 32.9485H2.20623V28.8511H5.80869C6.9554 28.8511 7.88845 27.9181 7.88845 26.7713V26.061C7.88845 25.3059 7.27409 24.6916 6.51894 24.6916H2.20623V23.1622C2.20623 22.8575 2.25404 22.5562 2.34835 22.2666L5.99581 11.066C6.14593 10.605 6.57255 10.2952 7.05744 10.2952H15.4456C15.5718 10.2952 15.6743 10.3978 15.6743 10.5239V32.9486H14.2295C13.4052 30.9204 11.4144 29.486 9.09369 29.486ZM35.9063 39.2522C33.5772 39.2522 31.6824 37.3574 31.6824 35.0283C31.6824 32.6992 33.5772 30.8043 35.9063 30.8043C38.2354 30.8043 40.1302 32.6992 40.1302 35.0283C40.1302 37.3574 38.2354 39.2522 35.9063 39.2522ZM43.6816 35.7897H41.395C41.4294 35.5406 41.4486 35.2867 41.4486 35.0283C41.4486 34.7699 41.4294 34.516 41.395 34.2669H43.6816V35.7897Z" fill="white"/>
<path d="M9.09343 32.9487C7.94672 32.9487 7.01367 33.8817 7.01367 35.0285C7.01367 36.1752 7.94663 37.1082 9.09343 37.1082C10.2402 37.1082 11.1732 36.1753 11.1732 35.0285C11.1731 33.8817 10.2401 32.9487 9.09343 32.9487ZM9.09343 35.7898C8.67366 35.7898 8.33203 35.4483 8.33203 35.0284C8.33203 34.6086 8.67357 34.267 9.09343 34.267C9.51328 34.267 9.85482 34.6085 9.85482 35.0284C9.85474 35.4483 9.51319 35.7898 9.09343 35.7898Z" fill="white"/>
<path d="M35.9058 32.9487C34.7591 32.9487 33.8262 33.8817 33.8262 35.0285C33.8262 36.1752 34.7591 37.1082 35.9058 37.1082C37.0526 37.1082 37.9856 36.1753 37.9856 35.0285C37.9856 33.8817 37.0526 32.9487 35.9058 32.9487ZM35.9058 35.7898C35.4861 35.7898 35.1445 35.4483 35.1445 35.0284C35.1445 34.6086 35.4861 34.267 35.9058 34.267C36.3256 34.267 36.6672 34.6085 36.6672 35.0284C36.6672 35.4483 36.3257 35.7898 35.9058 35.7898Z" fill="white"/>
<path d="M13.492 23.5376H12.249C11.885 23.5376 11.5898 23.8327 11.5898 24.1968C11.5898 24.5608 11.885 24.856 12.249 24.856H13.492C13.856 24.856 14.1512 24.5608 14.1512 24.1968C14.1512 23.8327 13.8561 23.5376 13.492 23.5376Z" fill="white"/>
<path d="M14.1519 20.6456V13.1872C14.1519 12.4321 13.5377 11.8179 12.7826 11.8179H7.99169C7.3834 11.8179 6.84191 12.2267 6.67483 12.8124L5.62541 16.4986C5.52574 16.8487 5.72877 17.2134 6.07893 17.3131C6.42891 17.4125 6.79365 17.2097 6.89341 16.8595L7.94265 13.1738C7.94898 13.1516 7.96919 13.1361 7.99169 13.1361H12.7826C12.8107 13.1361 12.8336 13.159 12.8336 13.1871V20.6455C12.8336 20.6736 12.8107 20.6965 12.7826 20.6965H5.86825C5.86078 20.6965 5.84329 20.6965 5.82791 20.6761C5.81235 20.6555 5.81745 20.6377 5.81939 20.6307L6.05054 19.8177C6.15012 19.4675 5.94692 19.1029 5.59676 19.0034C5.24669 18.9038 4.88194 19.107 4.78245 19.4571L4.55139 20.2698C4.43256 20.6866 4.51439 21.1243 4.77568 21.4704C5.0369 21.8164 5.43504 22.0149 5.86825 22.0149H12.7826C13.5377 22.0149 14.1519 21.4007 14.1519 20.6456Z" fill="white"/>
</svg>
