<svg width="45" height="45" viewBox="0 0 45 45" fill="none" xmlns="http://www.w3.org/2000/svg">
<path d="M13.7398 12.4797L19.4012 15.7483C19.6421 15.8876 19.9464 15.8605 20.1594 15.6784C20.4981 15.3886 20.8812 15.1669 21.2983 15.0194C21.5617 14.9263 21.7377 14.6773 21.7377 14.398V7.85696C21.7377 7.66686 21.6556 7.48606 21.5126 7.36091C21.3696 7.23575 21.1796 7.17836 20.9911 7.20358C18.0312 7.59971 15.3878 9.12751 13.548 11.5055C13.4315 11.6559 13.3858 11.8495 13.4226 12.0362C13.4593 12.2228 13.575 12.3846 13.7398 12.4797ZM20.4194 8.63893V13.9561C20.16 14.0772 19.9121 14.2205 19.6773 14.3855L15.0769 11.7295C16.4974 10.1493 18.3539 9.0753 20.4194 8.63893Z" fill="white"/>
<path d="M32.3531 23.1243C32.4246 23.1243 32.4963 23.1127 32.5655 23.0891C32.7454 23.0279 32.8901 22.8921 32.9626 22.7164C33.5265 21.3491 33.8124 19.9022 33.8124 18.4161C33.8124 16.93 33.5265 15.4832 32.9626 14.1159C32.8902 13.9402 32.7454 13.8044 32.5655 13.7432C32.3857 13.6819 32.1881 13.7013 32.0235 13.7963L26.3589 17.0668C26.1172 17.2062 25.9896 17.4829 26.0403 17.7573C26.0809 17.9773 26.1016 18.199 26.1016 18.4161C26.1016 18.6331 26.081 18.8547 26.0403 19.0748C25.9896 19.3493 26.1172 19.6259 26.3589 19.7654L32.0235 23.0358C32.1249 23.0945 32.2386 23.1243 32.3531 23.1243ZM27.4009 18.8448C27.4136 18.7014 27.4199 18.5583 27.4199 18.4162C27.4199 18.2742 27.4135 18.131 27.4009 17.9877L32.0058 15.329C32.33 16.3229 32.494 17.3581 32.494 18.4162C32.494 19.4743 32.33 20.5095 32.0058 21.5034L27.4009 18.8448Z" fill="white"/>
<path d="M12.4334 13.7431C12.2535 13.8043 12.1088 13.9402 12.0363 14.1159C11.4724 15.4832 11.1865 16.93 11.1865 18.4161C11.1865 19.9022 11.4724 21.349 12.0363 22.7163C12.1088 22.892 12.2535 23.0278 12.4334 23.0891C12.5025 23.1126 12.5743 23.1242 12.6458 23.1242C12.7603 23.1242 12.8741 23.0944 12.9754 23.0359L18.64 19.7655C18.8817 19.626 19.0093 19.3493 18.9586 19.0749C18.918 18.8549 18.8973 18.6333 18.8973 18.4162C18.8973 18.1991 18.9179 17.9774 18.9586 17.7574C19.0093 17.483 18.8817 17.2064 18.64 17.0669L12.9754 13.7965C12.8108 13.7013 12.6133 13.682 12.4334 13.7431ZM17.5981 17.9875C17.5853 18.1308 17.579 18.2741 17.579 18.416C17.579 18.558 17.5854 18.7012 17.5981 18.8446L12.9931 21.5033C12.6689 20.5093 12.5049 19.4741 12.5049 18.4161C12.5049 17.358 12.6689 16.3228 12.9931 15.3288L17.5981 17.9875Z" fill="white"/>
<path d="M20.9922 29.6286C21.3736 29.6892 21.7482 29.3623 21.7388 28.9752V22.4343C21.7388 22.155 21.5627 21.9059 21.2993 21.8128C20.8822 21.6653 20.4991 21.4437 20.1604 21.1539C19.948 20.9722 19.6443 20.9442 19.4022 21.084L13.7407 24.3525C13.5759 24.4477 13.4604 24.6093 13.4235 24.7961C13.3868 24.9828 13.4325 25.1762 13.549 25.3268C15.3889 27.7048 18.0323 29.2325 20.9922 29.6286ZM19.6784 22.4469C19.9132 22.6118 20.1611 22.7552 20.4204 22.8762V28.1934C18.355 27.757 16.4984 26.683 15.0779 25.1029L19.6784 22.4469Z" fill="white"/>
<path d="M24.5794 18.4157C24.5794 17.2689 23.6465 16.3359 22.4997 16.3359C21.3529 16.3359 20.4199 17.2689 20.4199 18.4157C20.4199 19.5625 21.3529 20.4954 22.4997 20.4954C23.6465 20.4954 24.5794 19.5625 24.5794 18.4157ZM21.7383 18.4157C21.7383 17.9959 22.0798 17.6543 22.4997 17.6543C22.9195 17.6543 23.2611 17.9958 23.2611 18.4157C23.2611 18.8355 22.9195 19.1771 22.4997 19.1771C22.0798 19.1771 21.7383 18.8355 21.7383 18.4157Z" fill="white"/>
<path d="M23.4859 29.4714C23.6288 29.5968 23.8207 29.6539 24.0075 29.6287C26.9674 29.2326 29.6108 27.7048 31.4506 25.3268C31.567 25.1763 31.6127 24.9828 31.576 24.7961C31.5392 24.6093 31.4236 24.4477 31.2588 24.3525L25.5973 21.084C25.3553 20.9441 25.0515 20.9723 24.8392 21.1539C24.5004 21.4437 24.1173 21.6654 23.7002 21.8128C23.4368 21.906 23.2607 22.155 23.2607 22.4343V28.9752C23.2608 29.1653 23.3428 29.3462 23.4859 29.4714ZM24.5792 22.8761C24.8386 22.7551 25.0864 22.6118 25.3212 22.4468L29.9216 25.1028C28.5011 26.6829 26.6445 27.7569 24.5791 28.1933V22.8761H24.5792Z" fill="white"/>
<path d="M24.8391 15.6783C25.052 15.8606 25.3563 15.8876 25.5972 15.7483L31.2587 12.4797C31.4235 12.3846 31.5391 12.2229 31.5759 12.0362C31.6126 11.8495 31.5669 11.656 31.4505 11.5055C29.6107 9.12751 26.9673 7.59979 24.0074 7.20358C23.8188 7.17836 23.6288 7.23575 23.4858 7.36091C23.3428 7.48606 23.2607 7.66686 23.2607 7.85696V14.398C23.2607 14.6774 23.4368 14.9264 23.7002 15.0194C24.1171 15.1668 24.5004 15.3886 24.8391 15.6783ZM24.579 8.63893C26.6444 9.0753 28.501 10.1493 29.9215 11.7294L25.3212 14.3854C25.0863 14.2205 24.8385 14.0771 24.5791 13.956V8.63893H24.579Z" fill="white"/>
<path d="M39.0135 31.2521H35.7025C39.0332 27.8278 40.9154 23.2373 40.9154 18.4157C40.9154 8.26128 32.6542 0 22.4997 0C18.1682 0 13.961 1.5329 10.653 4.3164C10.3745 4.5508 10.3386 4.96661 10.573 5.24514C10.8074 5.52366 11.2232 5.55943 11.5018 5.32512C14.5726 2.74131 18.4784 1.31836 22.4997 1.31836C31.9272 1.31836 39.5971 8.98822 39.5971 18.4157C39.5971 23.3391 37.4833 28.0029 33.7912 31.2521H28.4587C28.6242 31.1752 28.7887 31.0961 28.951 31.0127C30.8673 30.0274 32.5629 28.5906 33.8546 26.8579C34.0722 26.566 34.0119 26.153 33.72 25.9354C33.4281 25.7178 33.015 25.778 32.7975 26.0699C31.6253 27.6426 30.0867 28.9463 28.348 29.8404C26.5262 30.7771 24.5585 31.2521 22.4997 31.2521C15.4221 31.2521 9.66416 25.4937 9.66416 18.4157C9.66416 11.3382 15.4221 5.58018 22.4997 5.58018C29.5773 5.58018 35.3353 11.3382 35.3353 18.4157C35.3353 20.1959 34.9756 21.9217 34.2662 23.5448C34.1204 23.8783 34.2727 24.267 34.6063 24.4128C34.9397 24.5586 35.3285 24.4063 35.4743 24.0727C36.2568 22.2821 36.6535 20.3788 36.6535 18.4157C36.6535 10.6113 30.3041 4.26182 22.4996 4.26182C14.6951 4.26182 8.3458 10.6112 8.3458 18.4157C8.3458 24.0922 11.7048 28.9981 16.5391 31.2521H11.2082C7.51611 28.0029 5.40234 23.339 5.40234 18.4157C5.40234 14.3944 6.82529 10.4886 9.4091 7.41788C9.64351 7.13936 9.60765 6.72355 9.32912 6.48914C9.05068 6.25474 8.63479 6.2906 8.40038 6.56912C5.61697 9.87697 4.08398 14.0843 4.08398 18.4157C4.08398 23.2374 5.96625 27.8278 9.29686 31.2521H5.98594C4.44776 31.2521 3.19629 32.5035 3.19629 34.0418V42.2104C3.19629 43.7485 4.44768 45 5.98594 45H27.7354C28.0994 45 28.3945 44.7049 28.3945 44.3408C28.3945 43.9768 28.0994 43.6816 27.7354 43.6816H26.3945L26.9602 42.6633C27.1371 42.3451 27.0224 41.9438 26.7041 41.7669C26.386 41.5901 25.9846 41.7048 25.8077 42.0231L24.8863 43.6816H18.8479L19.4136 42.6633C19.5904 42.3451 19.4757 41.9438 19.1575 41.767C18.8392 41.5902 18.438 41.7049 18.2612 42.0231L17.3397 43.6816H11.3012L11.867 42.6633C12.0438 42.3451 11.9291 41.9438 11.6108 41.767C11.2926 41.5903 10.8913 41.7049 10.7145 42.0231L9.7931 43.6816H5.98594C5.17471 43.6816 4.51465 43.0216 4.51465 42.2104V40.2057H35.8172C36.1813 40.2057 36.4764 39.9105 36.4764 39.5465C36.4764 39.1824 36.1813 38.8873 35.8172 38.8873H4.51465V34.0418C4.51465 33.2306 5.17462 32.5705 5.98594 32.5705H6.01617L6.91635 34.2239C7.03588 34.4435 7.2622 34.568 7.4959 34.568C7.60233 34.568 7.71035 34.5422 7.81055 34.4876C8.13029 34.3136 8.24833 33.9132 8.07422 33.5935L7.51726 32.5705H13.5628L14.463 34.2239C14.5825 34.4435 14.8088 34.568 15.0425 34.568C15.149 34.568 15.257 34.5422 15.3572 34.4876C15.6769 34.3136 15.795 33.9132 15.6209 33.5935L15.0639 32.5705H21.1095L22.0096 34.2239C22.1292 34.4435 22.3555 34.568 22.5892 34.568C22.6956 34.568 22.8036 34.5422 22.9038 34.4876C23.2236 34.3136 23.3416 33.9132 23.1675 33.5935L22.6105 32.5705H28.6561L29.5563 34.2239C29.6758 34.4435 29.9021 34.568 30.1358 34.568C30.2423 34.568 30.3503 34.5422 30.4505 34.4876C30.7702 34.3136 30.8883 33.9132 30.7141 33.5935L30.1572 32.5705H36.2027L37.1029 34.2239C37.2224 34.4435 37.4488 34.568 37.6825 34.568C37.7889 34.568 37.8969 34.5422 37.9971 34.4876C38.3169 34.3136 38.4349 33.9132 38.2608 33.5935L37.7038 32.5705H39.0136C39.8248 32.5705 40.4849 33.2305 40.4849 34.0418V36.0462H9.18217C8.81813 36.0462 8.52299 36.3414 8.52299 36.7054C8.52299 37.0695 8.81813 37.3646 9.18217 37.3646H40.4848V42.2104C40.4848 43.0216 39.8248 43.6816 39.0135 43.6816H33.9411L34.5069 42.6633C34.6837 42.3451 34.569 41.9438 34.2508 41.767C33.9326 41.5902 33.5313 41.7049 33.3545 42.0231L32.433 43.6816H30.8115C30.4475 43.6816 30.1523 43.9768 30.1523 44.3408C30.1523 44.7049 30.4475 45 30.8115 45H39.0135C40.5517 45 41.8031 43.7485 41.8031 42.2104V34.0418C41.8031 32.5035 40.5517 31.2521 39.0135 31.2521Z" fill="white"/>
</svg>
