<svg width="384" height="90" viewBox="0 0 384 90" fill="none" xmlns="http://www.w3.org/2000/svg">
<path d="M0.513364 81.2952C0.253409 81.6177 0.304101 82.0898 0.626586 82.3498C0.949071 82.6098 1.42123 82.5591 1.68119 82.2366L0.513364 81.2952ZM383.574 89.6206L382.342 81.0485L375.535 86.4018L383.574 89.6206ZM2.9233 80.7188C3.18797 80.4001 3.14424 79.9273 2.82561 79.6626C2.50698 79.3979 2.03413 79.4417 1.76946 79.7603L2.9233 80.7188ZM4.37265 76.717C4.09895 77.0279 4.12911 77.5018 4.44001 77.7755C4.75092 78.0492 5.22483 78.0191 5.49853 77.7082L4.37265 76.717ZM8.19298 74.7324C8.4752 74.4292 8.45819 73.9546 8.155 73.6724C7.8518 73.3902 7.37723 73.4072 7.09502 73.7104L8.19298 74.7324ZM9.84694 70.8306C9.55692 71.1263 9.56157 71.6011 9.85731 71.8912C10.1531 72.1812 10.6279 72.1765 10.9179 71.8808L9.84694 70.8306ZM13.7431 69.0719C14.0405 68.7836 14.0478 68.3088 13.7595 68.0114C13.4711 67.714 12.9963 67.7067 12.6989 67.9951L13.7431 69.0719ZM15.6305 65.2211C15.3262 65.5021 15.3074 65.9766 15.5884 66.2809C15.8695 66.5852 16.344 66.604 16.6483 66.3229L15.6305 65.2211ZM19.5831 63.6743C19.8938 63.4003 19.9235 62.9264 19.6495 62.6157C19.3756 62.3051 18.9016 62.2753 18.591 62.5493L19.5831 63.6743ZM21.6452 59.9162C21.3285 60.1832 21.2881 60.6563 21.5551 60.973C21.8221 61.2897 22.2952 61.3301 22.6119 61.0631L21.6452 59.9162ZM25.6839 58.5299C26.0063 58.2699 26.0568 57.7977 25.7967 57.4753C25.5366 57.1529 25.0644 57.1024 24.742 57.3625L25.6839 58.5299ZM27.8788 54.885C27.5512 55.1384 27.4909 55.6095 27.7443 55.9371C27.9977 56.2648 28.4688 56.325 28.7964 56.0716L27.8788 54.885ZM31.9915 53.6523C32.3242 53.4056 32.3939 52.9359 32.1472 52.6031C31.9005 52.2704 31.4308 52.2007 31.098 52.4474L31.9915 53.6523ZM34.3341 50.0962C33.9967 50.3364 33.9179 50.8047 34.1581 51.1421C34.3984 51.4796 34.8667 51.5584 35.2041 51.3181L34.3341 50.0962ZM38.463 49.0439C38.8049 48.81 38.8925 48.3433 38.6586 48.0014C38.4247 47.6595 37.958 47.572 37.6161 47.8058L38.463 49.0439ZM40.9707 45.5564C40.6246 45.784 40.5284 46.249 40.756 46.5951C40.9835 46.9412 41.4485 47.0374 41.7946 46.8099L40.9707 45.5564ZM45.1289 44.6604C45.479 44.439 45.5834 43.9757 45.362 43.6256C45.1406 43.2755 44.6774 43.1712 44.3273 43.3925L45.1289 44.6604ZM47.7299 41.2824C47.376 41.4976 47.2636 41.959 47.4789 42.3129C47.6941 42.6668 48.1555 42.7791 48.5094 42.5639L47.7299 41.2824ZM51.954 40.5087C52.3115 40.2995 52.4317 39.8401 52.2225 39.4826C52.0133 39.1251 51.5539 39.0049 51.1964 39.2141L51.954 40.5087ZM54.6595 37.2257C54.2986 37.429 54.1708 37.8863 54.3741 38.2472C54.5774 38.6081 55.0348 38.7359 55.3957 38.5326L54.6595 37.2257ZM58.878 36.6079C59.2421 36.4105 59.3772 35.9552 59.1798 35.5911C58.9824 35.227 58.5271 35.0919 58.163 35.2893L58.878 36.6079ZM61.7229 33.3957C61.3556 33.5873 61.2133 34.0404 61.4049 34.4076C61.5965 34.7748 62.0495 34.9172 62.4168 34.7256L61.7229 33.3957ZM65.9546 32.9145C66.3247 32.7286 66.4741 32.2778 66.2882 31.9076C66.1023 31.5375 65.6515 31.3881 65.2814 31.574L65.9546 32.9145ZM68.8702 29.8059C68.4972 29.9861 68.341 30.4345 68.5212 30.8075C68.7015 31.1804 69.1499 31.3367 69.5229 31.1564L68.8702 29.8059ZM73.1409 29.4416C73.5165 29.267 73.6795 28.821 73.5049 28.4453C73.3303 28.0697 72.8843 27.9068 72.5087 28.0813L73.1409 29.4416ZM76.153 26.4202C75.7748 26.5892 75.6053 27.0328 75.7743 27.411C75.9433 27.7891 76.3869 27.9587 76.7651 27.7897L76.153 26.4202ZM80.4066 26.1939C80.7872 26.0304 80.9632 25.5893 80.7997 25.2088C80.6362 24.8282 80.1951 24.6522 79.8146 24.8157L80.4066 26.1939ZM83.5198 23.2556C83.1369 23.4136 82.9546 23.852 83.1126 24.2349C83.2706 24.6178 83.709 24.8002 84.0919 24.6422L83.5198 23.2556ZM87.7935 23.1458C88.1786 22.9933 88.3672 22.5575 88.2146 22.1723C88.0621 21.7872 87.6263 21.5987 87.2412 21.7512L87.7935 23.1458ZM90.9653 20.3066C90.5781 20.4537 90.3834 20.8868 90.5305 21.274C90.6776 21.6612 91.1107 21.8559 91.498 21.7088L90.9653 20.3066ZM95.2408 20.3168C95.63 20.1751 95.8307 19.7448 95.689 19.3555C95.5474 18.9663 95.117 18.7656 94.7278 18.9073L95.2408 20.3168ZM98.5177 17.5575C98.1265 17.6938 97.9199 18.1213 98.0561 18.5125C98.1924 18.9037 98.62 19.1103 99.0111 18.974L98.5177 17.5575ZM102.77 17.6933C103.163 17.5624 103.375 17.1377 103.244 16.7447C103.113 16.3517 102.689 16.1393 102.296 16.2702L102.77 17.6933ZM106.108 15.0291C105.713 15.1547 105.495 15.5765 105.62 15.9712C105.746 16.3659 106.168 16.5841 106.562 16.4586L106.108 15.0291ZM110.387 15.2706C110.783 15.1504 111.007 14.7316 110.887 14.3352C110.767 13.9388 110.348 13.7149 109.952 13.8351L110.387 15.2706ZM113.783 12.7016C113.385 12.8164 113.155 13.2322 113.27 13.6301C113.385 14.0281 113.801 14.2576 114.199 14.1428L113.783 12.7016ZM118.034 13.0638C118.433 12.9543 118.668 12.5417 118.559 12.1422C118.449 11.7427 118.036 11.5077 117.637 11.6172L118.034 13.0638ZM121.519 10.5807C121.118 10.6849 120.878 11.0943 120.982 11.4952C121.086 11.8961 121.496 12.1367 121.896 12.0325L121.519 10.5807ZM125.762 11.0556C126.165 10.9567 126.411 10.5506 126.312 10.1483C126.213 9.74605 125.807 9.50005 125.405 9.59887L125.762 11.0556ZM129.295 8.67043C128.892 8.7639 128.64 9.1668 128.734 9.57033C128.827 9.97386 129.23 10.2252 129.634 10.1317L129.295 8.67043ZM133.529 9.25674C133.934 9.16864 134.191 8.76912 134.103 8.36439C134.014 7.95965 133.615 7.70296 133.21 7.79105L133.529 9.25674ZM137.141 6.96276C136.735 7.04546 136.473 7.44153 136.556 7.84741C136.639 8.25328 137.035 8.51526 137.441 8.43256L137.141 6.96276ZM141.343 7.66423C141.75 7.58691 142.017 7.19434 141.94 6.78741C141.863 6.38048 141.47 6.11328 141.063 6.1906L141.343 7.66423ZM145.005 5.46863C144.597 5.54054 144.325 5.92952 144.397 6.33745C144.469 6.74537 144.858 7.01776 145.266 6.94585L145.005 5.46863ZM149.207 6.27811C149.616 6.21165 149.894 5.82634 149.827 5.41749C149.761 5.00864 149.375 4.73108 148.967 4.79754L149.207 6.27811ZM152.921 4.18163C152.512 4.24264 152.229 4.62423 152.29 5.03392C152.351 5.44362 152.733 5.72628 153.142 5.66527L152.921 4.18163ZM157.087 5.10475C157.497 5.04922 157.785 4.67145 157.73 4.26098C157.674 3.8505 157.296 3.56276 156.886 3.61829L157.087 5.10475ZM160.866 3.10705C160.455 3.15706 160.162 3.53093 160.212 3.94212C160.262 4.3533 160.636 4.64609 161.047 4.59608L160.866 3.10705ZM165.012 4.14086C165.424 4.0964 165.722 3.72651 165.678 3.31469C165.633 2.90287 165.263 2.60507 164.851 2.64953L165.012 4.14086ZM168.833 2.24682C168.421 2.28572 168.118 2.65155 168.157 3.06393C168.196 3.47632 168.561 3.77909 168.974 3.74019L168.833 2.24682ZM172.947 3.39265C173.36 3.35936 173.668 2.99768 173.634 2.58481C173.601 2.17193 173.24 1.86421 172.827 1.8975L172.947 3.39265ZM176.831 1.60221C176.418 1.62984 176.106 1.98727 176.133 2.40056C176.161 2.81385 176.518 3.1265 176.932 3.09887L176.831 1.60221ZM180.907 2.86054C181.32 2.83859 181.638 2.48549 181.616 2.07185C181.594 1.65822 181.241 1.3407 180.827 1.36265L180.907 2.86054ZM184.829 1.178C184.415 1.19423 184.093 1.54291 184.109 1.9568C184.125 2.3707 184.474 2.69307 184.888 2.67685L184.829 1.178ZM188.877 2.54828C189.291 2.53782 189.618 2.19367 189.608 1.77959C189.597 1.3655 189.253 1.0383 188.839 1.04875L188.877 2.54828ZM192.848 0.975643C192.434 0.980287 192.102 1.31981 192.107 1.734C192.111 2.14819 192.451 2.48019 192.865 2.47555L192.848 0.975643ZM196.849 2.45898C197.263 2.46018 197.6 2.12537 197.601 1.71116C197.602 1.29695 197.267 0.960187 196.853 0.958983L196.849 2.45898ZM200.862 0.99915C200.448 0.992047 200.107 1.32202 200.099 1.73618C200.092 2.15033 200.422 2.49183 200.836 2.49893L200.862 0.99915ZM204.828 2.59604C205.242 2.60909 205.588 2.28406 205.601 1.87005C205.614 1.45604 205.289 1.10984 204.875 1.09678L204.828 2.59604ZM208.876 1.25187C208.463 1.23283 208.112 1.55283 208.093 1.96661C208.074 2.38038 208.394 2.73125 208.807 2.75029L208.876 1.25187ZM212.787 2.96247C213.201 2.98754 213.556 2.67269 213.582 2.25924C213.607 1.84579 213.292 1.49029 212.878 1.46522L212.787 2.96247ZM216.881 1.73749C216.468 1.70633 216.108 2.01591 216.076 2.42895C216.045 2.84199 216.355 3.20208 216.768 3.23324L216.881 1.73749ZM220.742 3.56271C221.154 3.6 221.519 3.29581 221.556 2.88328C221.594 2.47075 221.289 2.10609 220.877 2.0688L220.742 3.56271ZM224.864 2.4593C224.452 2.41583 224.083 2.71452 224.039 3.12645C223.996 3.53838 224.294 3.90755 224.706 3.95101L224.864 2.4593ZM228.668 4.39937C229.08 4.44906 229.453 4.15599 229.503 3.74477C229.553 3.33354 229.26 2.9599 228.848 2.9102L228.668 4.39937ZM232.829 3.42214C232.419 3.36617 232.041 3.6535 231.985 4.06391C231.929 4.47433 232.216 4.85241 232.627 4.90838L232.829 3.42214ZM236.568 5.47683C236.978 5.53912 237.36 5.25764 237.422 4.84814C237.485 4.43863 237.203 4.05617 236.794 3.99389L236.568 5.47683ZM240.752 4.62735C240.343 4.5587 239.956 4.8342 239.888 5.24268C239.819 5.65117 240.094 6.03796 240.503 6.10661L240.752 4.62735ZM244.431 6.79847C244.839 6.87353 245.23 6.60415 245.305 6.19679C245.38 5.78943 245.11 5.39836 244.703 5.3233L244.431 6.79847ZM248.641 6.08123C248.235 5.99973 247.84 6.26288 247.758 6.669C247.677 7.07511 247.94 7.47041 248.346 7.55191L248.641 6.08123ZM252.244 8.36661C252.649 8.4546 253.048 8.19781 253.136 7.79304C253.224 7.38828 252.968 6.98883 252.563 6.90084L252.244 8.36661ZM256.475 7.78434C256.071 7.68982 255.668 7.94013 255.573 8.34342C255.479 8.7467 255.729 9.15025 256.132 9.24477L256.475 7.78434ZM260.01 10.187C260.412 10.288 260.82 10.0444 260.921 9.64266C261.022 9.24098 260.778 8.8334 260.376 8.73231L260.01 10.187ZM264.253 9.7416C263.853 9.63393 263.441 9.8709 263.333 10.2709C263.226 10.6708 263.463 11.0824 263.863 11.19L264.253 9.7416ZM267.7 12.2572C268.098 12.3715 268.514 12.1414 268.628 11.7433C268.742 11.3451 268.512 10.9297 268.114 10.8154L267.7 12.2572ZM271.962 11.955C271.566 11.8341 271.147 12.0572 271.026 12.4534C270.905 12.8495 271.128 13.2687 271.524 13.3897L271.962 11.955ZM275.328 14.586C275.722 14.7137 276.145 14.4977 276.273 14.1036C276.4 13.7095 276.185 13.2866 275.79 13.159L275.328 14.586ZM279.589 14.4249C279.197 14.2906 278.771 14.4994 278.637 14.8913C278.502 15.2831 278.711 15.7096 279.103 15.8439L279.589 14.4249ZM282.862 17.1682C283.251 17.3091 283.681 17.1077 283.822 16.7182C283.963 16.3288 283.762 15.8987 283.372 15.7577L282.862 17.1682ZM287.138 17.158C286.751 17.0103 286.318 17.2042 286.17 17.5912C286.022 17.9782 286.216 18.4116 286.603 18.5593L287.138 17.158ZM290.309 20.0107C290.693 20.1651 291.13 19.9787 291.284 19.5944C291.438 19.21 291.252 18.7732 290.868 18.6188L290.309 20.0107ZM294.572 20.1448C294.19 19.9837 293.75 20.1624 293.589 20.544C293.428 20.9256 293.607 21.3656 293.988 21.5267L294.572 20.1448ZM297.649 23.1105C298.027 23.2783 298.47 23.1074 298.638 22.7287C298.806 22.35 298.635 21.907 298.257 21.7391L297.649 23.1105ZM301.916 23.4003C301.541 23.2257 301.095 23.3888 300.92 23.7644C300.746 24.14 300.909 24.5861 301.284 24.7606L301.916 23.4003ZM304.872 26.4665C305.244 26.6477 305.693 26.4926 305.874 26.1202C306.055 25.7477 305.9 25.2988 305.528 25.1176L304.872 26.4665ZM309.117 26.9038C308.748 26.716 308.297 26.8629 308.109 27.2321C307.921 27.6013 308.068 28.0528 308.437 28.2407L309.117 26.9038ZM311.98 30.0838C312.345 30.2783 312.799 30.1395 312.994 29.7738C313.188 29.408 313.05 28.9539 312.684 28.7594L311.98 30.0838ZM316.207 30.6741C315.845 30.473 315.388 30.6035 315.187 30.9657C314.986 31.3278 315.117 31.7844 315.479 31.9855L316.207 30.6741ZM318.935 33.9457C319.294 34.1533 319.752 34.031 319.96 33.6726C320.168 33.3141 320.045 32.8553 319.687 32.6477L318.935 33.9457ZM323.142 34.6908C322.787 34.4767 322.326 34.5906 322.112 34.9452C321.898 35.2998 322.012 35.7609 322.366 35.9749L323.142 34.6908ZM325.772 38.0738C326.122 38.2943 326.586 38.1889 326.806 37.8383C327.027 37.4877 326.921 37.0246 326.571 36.8041L325.772 38.0738ZM329.934 38.9627C329.587 38.7358 329.122 38.8327 328.895 39.1793C328.669 39.5258 328.766 39.9907 329.112 40.2176L329.934 38.9627ZM332.418 42.4257C332.761 42.6589 333.227 42.5704 333.46 42.2281C333.694 41.8857 333.605 41.4192 333.263 41.186L332.418 42.4257ZM336.564 43.4791C336.226 43.2397 335.758 43.3196 335.518 43.6576C335.279 43.9956 335.359 44.4638 335.697 44.7032L336.564 43.4791ZM338.94 47.0454C339.273 47.291 339.743 47.2197 339.989 46.8861C340.234 46.5526 340.163 46.0831 339.829 45.8375L338.94 47.0454ZM343.019 48.231C342.69 47.9794 342.219 48.0422 341.968 48.3712C341.716 48.7003 341.779 49.171 342.108 49.4226L343.019 48.231ZM345.246 51.8683C345.571 52.1259 346.043 52.0717 346.3 51.7473C346.558 51.4229 346.504 50.9511 346.179 50.6936L345.246 51.8683ZM349.309 53.2256C348.989 52.9622 348.517 53.0077 348.253 53.3274C347.99 53.647 348.035 54.1197 348.355 54.3831L349.309 53.2256ZM351.412 56.9495C351.726 57.2187 352.2 57.1818 352.469 56.867C352.738 56.5522 352.701 56.0787 352.387 55.8095L351.412 56.9495ZM355.394 58.4285C355.084 58.1536 354.61 58.1821 354.335 58.492C354.06 58.8019 354.089 59.2759 354.398 59.5507L355.394 58.4285ZM357.354 62.2198C357.659 62.5001 358.133 62.4802 358.414 62.1753C358.694 61.8704 358.674 61.396 358.369 61.1156L357.354 62.2198ZM361.313 63.8714C361.013 63.5856 360.538 63.5969 360.252 63.8968C359.967 64.1966 359.978 64.6713 360.278 64.9571L361.313 63.8714ZM363.136 67.7309C363.431 68.022 363.906 68.0191 364.197 67.7244C364.488 67.4297 364.485 66.9549 364.19 66.6638L363.136 67.7309ZM367.002 69.4903C366.712 69.194 366.237 69.1886 365.941 69.4781C365.645 69.7676 365.639 70.2424 365.929 70.5387L367.002 69.4903ZM368.689 73.4131C368.973 73.7143 369.448 73.7281 369.749 73.4439C370.05 73.1596 370.064 72.6849 369.78 72.3837L368.689 73.4131ZM372.525 75.3443C372.246 75.0381 371.771 75.016 371.465 75.2949C371.159 75.5738 371.137 76.0482 371.416 76.3544L372.525 75.3443ZM374.07 79.319C374.343 79.63 374.817 79.6603 375.128 79.3867C375.439 79.1131 375.469 78.6392 375.196 78.3282L374.07 79.319ZM377.801 81.3412C377.533 81.0256 377.06 80.9873 376.744 81.2555C376.429 81.5238 376.39 81.9971 376.659 82.3127L377.801 81.3412ZM379.214 85.3713C379.477 85.6914 379.949 85.7378 380.27 85.4749C380.59 85.212 380.636 84.7394 380.373 84.4193L379.214 85.3713ZM382.91 87.5627C382.653 87.2382 382.181 87.1839 381.857 87.4413C381.532 87.6987 381.478 88.1704 381.735 88.4949L382.91 87.5627ZM1.68119 82.2366C2.09012 81.7293 2.50417 81.2233 2.9233 80.7188L1.76946 79.7603C1.34567 80.2705 0.926953 80.7821 0.513364 81.2952L1.68119 82.2366ZM5.49853 77.7082C6.37695 76.7103 7.27524 75.7183 8.19298 74.7324L7.09502 73.7104C6.16799 74.7063 5.26039 75.7086 4.37265 76.717L5.49853 77.7082ZM10.9179 71.8808C11.842 70.9385 12.7838 70.0021 13.7431 69.0719L12.6989 67.9951C11.7307 68.9339 10.7799 69.8791 9.84694 70.8306L10.9179 71.8808ZM16.6483 66.3229C17.6107 65.434 18.5891 64.551 19.5831 63.6743L18.591 62.5493C17.5884 63.4335 16.6014 64.3242 15.6305 65.2211L16.6483 66.3229ZM22.6119 61.0631C23.6212 60.2124 24.6453 59.3679 25.6839 58.5299L24.742 57.3625C23.6952 58.2072 22.6628 59.0585 21.6452 59.9162L22.6119 61.0631ZM28.7964 56.0716C29.8478 55.2586 30.9129 54.4521 31.9915 53.6523L31.098 52.4474C30.0115 53.2532 28.9383 54.0658 27.8788 54.885L28.7964 56.0716ZM35.2041 51.3181C36.2781 50.5535 37.3645 49.7953 38.463 49.0439L37.6161 47.8058C36.5099 48.5625 35.4158 49.326 34.3341 50.0962L35.2041 51.3181ZM41.7946 46.8099C42.8948 46.0867 44.0063 45.3701 45.1289 44.6604L44.3273 43.3925C43.1973 44.107 42.0783 44.8283 40.9707 45.5564L41.7946 46.8099ZM48.5094 42.5639C49.647 41.8719 50.7953 41.1868 51.954 40.5087L51.1964 39.2141C50.0304 39.8964 48.8748 40.5859 47.7299 41.2824L48.5094 42.5639ZM55.3957 38.5326C56.5469 37.8841 57.7077 37.2425 58.878 36.6079L58.163 35.2893C56.9857 35.9277 55.8177 36.5732 54.6595 37.2257L55.3957 38.5326ZM62.4168 34.7256C63.5872 34.1148 64.7666 33.5111 65.9546 32.9145L65.2814 31.574C64.0865 32.1741 62.9002 32.7814 61.7229 33.3957L62.4168 34.7256ZM69.5229 31.1564C70.7207 30.5776 71.9268 30.0059 73.1409 29.4416L72.5087 28.0813C71.2877 28.6488 70.0748 29.2237 68.8702 29.8059L69.5229 31.1564ZM76.7651 27.7897C77.9715 27.2505 79.1854 26.7185 80.4066 26.1939L79.8146 24.8157C78.5867 25.3432 77.3661 25.8781 76.153 26.4202L76.7651 27.7897ZM84.0919 24.6422C85.3189 24.136 86.5528 23.6371 87.7935 23.1458L87.2412 21.7512C85.9939 22.2451 84.7534 22.7466 83.5198 23.2556L84.0919 24.6422ZM91.498 21.7088C92.7392 21.2373 93.9869 20.7732 95.2408 20.3168L94.7278 18.9073C93.4673 19.3661 92.2131 19.8325 90.9653 20.3066L91.498 21.7088ZM99.0111 18.974C100.258 18.5395 101.511 18.1126 102.77 17.6933L102.296 16.2702C101.031 16.6916 99.7713 17.1208 98.5177 17.5575L99.0111 18.974ZM106.562 16.4586C107.832 16.0547 109.107 15.6587 110.387 15.2706L109.952 13.8351C108.665 14.2252 107.384 14.6232 106.108 15.0291L106.562 16.4586ZM114.199 14.1428C115.472 13.7752 116.751 13.4155 118.034 13.0638L117.637 11.6172C116.347 11.9707 115.063 12.3322 113.783 12.7016L114.199 14.1428ZM121.896 12.0325C123.181 11.6989 124.469 11.3732 125.762 11.0556L125.405 9.59887C124.105 9.91805 122.81 10.2454 121.519 10.5807L121.896 12.0325ZM129.634 10.1317C130.928 9.8319 132.227 9.54019 133.529 9.25674L133.21 7.79105C131.901 8.07593 130.596 8.36909 129.295 8.67043L129.634 10.1317ZM137.441 8.43256C138.738 8.1682 140.039 7.91205 141.343 7.66423L141.063 6.1906C139.752 6.43966 138.445 6.69708 137.141 6.96276L137.441 8.43256ZM145.266 6.94585C146.576 6.7148 147.89 6.49218 149.207 6.27811L148.967 4.79754C147.643 5.01268 146.323 5.23642 145.005 5.46863L145.266 6.94585ZM153.142 5.66527C154.455 5.46987 155.77 5.28299 157.087 5.10475L156.886 3.61829C155.562 3.79743 154.24 3.98524 152.921 4.18163L153.142 5.66527ZM161.047 4.59608C162.366 4.43559 163.688 4.28381 165.012 4.14086L164.851 2.64953C163.521 2.79321 162.192 2.94575 160.866 3.10705L161.047 4.59608ZM168.974 3.74019C170.296 3.61545 171.621 3.49957 172.947 3.39265L172.827 1.8975C171.494 2.00497 170.162 2.12144 168.833 2.24682L168.974 3.74019ZM176.932 3.09887C178.255 3.01041 179.58 2.93093 180.907 2.86054L180.827 1.36265C179.494 1.4334 178.162 1.51329 176.831 1.60221L176.932 3.09887ZM184.888 2.67685C186.216 2.62477 187.546 2.58188 188.877 2.54828L188.839 1.04875C187.501 1.08253 186.165 1.12565 184.829 1.178L184.888 2.67685ZM192.865 2.47555C194.192 2.46067 195.52 2.45511 196.849 2.45898L196.853 0.958983C195.517 0.955099 194.182 0.960688 192.848 0.975643L192.865 2.47555ZM200.836 2.49893C202.166 2.52174 203.497 2.55407 204.828 2.59604L204.875 1.09678C203.537 1.05459 202.199 1.02208 200.862 0.99915L200.836 2.49893ZM208.807 2.75029C210.134 2.81132 211.461 2.88201 212.787 2.96247L212.878 1.46522C211.544 1.38431 210.21 1.31324 208.876 1.25187L208.807 2.75029ZM216.768 3.23324C218.093 3.33319 219.417 3.44298 220.742 3.56271L220.877 2.0688C219.545 1.9484 218.213 1.838 216.881 1.73749L216.768 3.23324ZM224.706 3.95101C226.028 4.09042 227.348 4.23984 228.668 4.39937L228.848 2.9102C227.521 2.74976 226.192 2.59949 224.864 2.4593L224.706 3.95101ZM232.627 4.90838C233.941 5.08768 235.255 5.27713 236.568 5.47683L236.794 3.99389C235.473 3.79302 234.152 3.60247 232.829 3.42214L232.627 4.90838ZM240.503 6.10661C241.814 6.32685 243.123 6.55744 244.431 6.79847L244.703 5.3233C243.387 5.08084 242.07 4.84888 240.752 4.62735L240.503 6.10661ZM248.346 7.55191C249.647 7.81297 250.946 8.0845 252.244 8.36661L252.563 6.90084C251.257 6.61703 249.95 6.34386 248.641 6.08123L248.346 7.55191ZM256.132 9.24477C257.427 9.54812 258.72 9.86216 260.01 10.187L260.376 8.73231C259.078 8.40551 257.777 8.08955 256.475 7.78434L256.132 9.24477ZM263.863 11.19C265.144 11.5349 266.423 11.8906 267.7 12.2572L268.114 10.8154C266.829 10.4466 265.542 10.0887 264.253 9.7416L263.863 11.19ZM271.524 13.3897C272.795 13.7775 274.063 14.1762 275.328 14.586L275.79 13.159C274.517 12.7466 273.241 12.3453 271.962 11.955L271.524 13.3897ZM279.103 15.8439C280.359 16.2742 281.612 16.7156 282.862 17.1682L283.372 15.7577C282.114 15.3023 280.853 14.858 279.589 14.4249L279.103 15.8439ZM286.603 18.5593C287.841 19.0319 289.076 19.5157 290.309 20.0107L290.868 18.6188C289.628 18.1206 288.384 17.6337 287.138 17.158L286.603 18.5593ZM293.988 21.5267C295.212 22.0433 296.432 22.5712 297.649 23.1105L298.257 21.7391C297.032 21.1962 295.803 20.6648 294.572 20.1448L293.988 21.5267ZM301.284 24.7606C302.484 25.3179 303.679 25.8865 304.872 26.4665L305.528 25.1176C304.328 24.5337 303.124 23.9613 301.916 23.4003L301.284 24.7606ZM308.437 28.2407C309.622 28.8435 310.803 29.4579 311.98 30.0838L312.684 28.7594C311.499 28.1293 310.31 27.5108 309.117 26.9038L308.437 28.2407ZM315.479 31.9855C316.635 32.6274 317.787 33.2808 318.935 33.9457L319.687 32.6477C318.531 31.9782 317.371 31.3204 316.207 30.6741L315.479 31.9855ZM322.366 35.9749C323.506 36.6629 324.641 37.3625 325.772 38.0738L326.571 36.8041C325.432 36.0879 324.289 35.3835 323.142 34.6908L322.366 35.9749ZM329.112 40.2176C330.219 40.9421 331.321 41.6782 332.418 42.4257L333.263 41.186C332.158 40.4333 331.048 39.6922 329.934 38.9627L329.112 40.2176ZM335.697 44.7032C336.783 45.4723 337.864 46.253 338.94 47.0454L339.829 45.8375C338.746 45.0397 337.657 44.2536 336.564 43.4791L335.697 44.7032ZM342.108 49.4226C343.159 50.2264 344.205 51.0416 345.246 51.8683L346.179 50.6936C345.131 49.8612 344.077 49.0404 343.019 48.231L342.108 49.4226ZM348.355 54.3831C349.379 55.2271 350.398 56.0825 351.412 56.9495L352.387 55.8095C351.366 54.9367 350.34 54.0754 349.309 53.2256L348.355 54.3831ZM354.398 59.5507C355.389 60.4291 356.374 61.3187 357.354 62.2198L358.369 61.1156C357.383 60.2085 356.391 59.3128 355.394 58.4285L354.398 59.5507ZM360.278 64.9571C361.236 65.8705 362.189 66.795 363.136 67.7309L364.19 66.6638C363.237 65.7217 362.277 64.7909 361.313 63.8714L360.278 64.9571ZM365.929 70.5387C366.854 71.4857 367.774 72.4438 368.689 73.4131L369.78 72.3837C368.859 71.408 367.933 70.4436 367.002 69.4903L365.929 70.5387ZM371.416 76.3544C372.306 77.3317 373.191 78.3198 374.07 79.319L375.196 78.3282C374.311 77.3226 373.421 76.328 372.525 75.3443L371.416 76.3544ZM376.659 82.3127C377.516 83.3214 378.368 84.3409 379.214 85.3713L380.373 84.4193C379.522 83.3824 378.664 82.3564 377.801 81.3412L376.659 82.3127Z" fill="#E1E1E1"/>
</svg>
