<svg width="386" height="151" viewBox="0 0 386 151" fill="none" xmlns="http://www.w3.org/2000/svg">
<g clip-path="url(#clip0_251_2506)">
<path d="M386.048 51.9758L382.809 43.9439L377.473 50.7645L386.048 51.9758ZM20.3256 135.491C20.5933 134.893 20.8663 134.296 21.1447 133.699L19.7851 133.065C19.5036 133.669 19.2274 134.273 18.9567 134.878L20.3256 135.491ZM22.8788 130.117C23.478 128.924 24.0983 127.732 24.7392 126.541L23.4183 125.83C22.7708 127.033 22.1441 128.238 21.5384 129.444L22.8788 130.117ZM26.6618 123.081C27.3212 121.93 27.9997 120.781 28.6969 119.633L27.4151 118.854C26.7113 120.012 26.0262 121.173 25.3603 122.335L26.6618 123.081ZM30.8213 116.234C31.5331 115.125 32.2623 114.019 33.0086 112.915L31.7659 112.075C31.0131 113.189 30.2774 114.305 29.5591 115.423L30.8213 116.234ZM35.2983 109.611C36.0637 108.533 36.8452 107.457 37.6426 106.385L36.4389 105.49C35.635 106.571 34.847 107.655 34.0752 108.742L35.2983 109.611ZM40.057 103.209C40.8771 102.153 41.7125 101.101 42.5629 100.052L41.3977 99.1074C40.5409 100.164 39.699 101.225 38.8725 102.289L40.057 103.209ZM45.0963 96.9902C45.9521 95.9764 46.8217 94.9662 47.7051 93.9599L46.5778 92.9703C45.6881 93.9839 44.8121 95.0014 43.9501 96.0226L45.0963 96.9902ZM50.3944 90.9543C51.2822 89.9808 52.1827 89.0111 53.0959 88.0456L52.006 87.0149C51.0867 87.987 50.18 88.9633 49.286 89.9436L50.3944 90.9543ZM55.8726 85.1616C56.8085 84.2067 57.7567 83.2562 58.7169 82.3103L57.6642 81.2417C56.6978 82.1937 55.7434 83.1505 54.8014 84.1117L55.8726 85.1616ZM61.5723 79.5446C62.5355 78.6272 63.5101 77.7145 64.4957 76.8067L63.4795 75.7034C62.4878 76.6168 61.5071 77.5352 60.5378 78.4584L61.5723 79.5446ZM67.4793 74.1038C68.466 73.2245 69.4632 72.3501 70.4706 71.4808L69.4906 70.3452C68.4772 71.2197 67.4741 72.0993 66.4814 72.9839L67.4793 74.1038ZM73.5232 68.8885C74.5501 68.0303 75.5869 67.1774 76.6335 66.3301L75.6897 65.1642C74.637 66.0165 73.5941 66.8743 72.5613 67.7375L73.5232 68.8885ZM79.7457 63.8495C80.7925 63.0281 81.8485 62.2122 82.9136 61.4021L82.0055 60.2082C80.9344 61.0229 79.8724 61.8434 78.8197 62.6695L79.7457 63.8495ZM86.136 58.9889C87.2024 58.2027 88.2774 57.4222 89.3609 56.6477L88.4885 55.4274C87.3991 56.2062 86.3182 56.991 85.2459 57.7816L86.136 58.9889ZM92.6324 54.3449C93.7312 53.5833 94.8382 52.8278 95.9533 52.0787L95.1168 50.8336C93.9957 51.5868 92.8827 52.3463 91.7779 53.112L92.6324 54.3449ZM99.2849 49.8749C100.399 49.1491 101.521 48.4297 102.65 47.7168L101.85 46.4484C100.714 47.1651 99.5865 47.8883 98.4662 48.6179L99.2849 49.8749ZM106.061 45.5976C107.197 44.9027 108.341 44.2143 109.491 43.5327L108.726 42.2422C107.57 42.9274 106.42 43.6194 105.278 44.318L106.061 45.5976ZM112.943 41.5202C114.1 40.8561 115.264 40.1989 116.435 39.5487L115.707 38.2374C114.53 38.8909 113.36 39.5516 112.196 40.2191L112.943 41.5202ZM119.956 37.6254C121.126 36.9964 122.303 36.3744 123.486 35.7597L122.795 34.4287C121.606 35.0466 120.422 35.6718 119.246 36.304L119.956 37.6254ZM127.054 33.9373C128.249 33.3372 129.45 32.7445 130.657 32.1593L130.003 30.8096C128.79 31.3978 127.582 31.9936 126.381 32.5968L127.054 33.9373ZM134.261 30.4425C135.468 29.8778 136.681 29.3207 137.898 28.7713L137.281 27.404C136.057 27.9562 134.839 28.5162 133.626 29.0838L134.261 30.4425ZM141.567 27.1466C142.789 26.6157 144.016 26.0926 145.248 25.5775L144.67 24.1936C143.431 24.7114 142.198 25.2372 140.97 25.7708L141.567 27.1466ZM148.949 24.0604C150.188 23.5628 151.431 23.0732 152.679 22.592L152.139 21.1924C150.885 21.6762 149.635 22.1684 148.39 22.6686L148.949 24.0604ZM156.429 21.176C157.678 20.7145 158.931 20.2613 160.188 19.8166L159.688 18.4024C158.424 18.8495 157.164 19.3051 155.909 19.769L156.429 21.176ZM163.973 18.508C165.239 18.0804 166.509 17.6614 167.783 17.2512L167.324 15.8234C166.043 16.2358 164.766 16.657 163.493 17.0869L163.973 18.508ZM171.597 16.0533C172.872 15.663 174.15 15.2815 175.432 14.9089L175.014 13.4685C173.725 13.843 172.439 14.2266 171.158 14.6191L171.597 16.0533ZM179.289 13.8185C180.575 13.4651 181.865 13.1208 183.157 12.7857L182.781 11.3337C181.481 11.6706 180.185 12.0168 178.892 12.3722L179.289 13.8185ZM187.037 11.8105C188.333 11.4947 189.633 11.1883 190.935 10.8915L190.602 9.42896C189.292 9.72748 187.985 10.0356 186.682 10.3531L187.037 11.8105ZM194.85 10.0301C196.152 9.75355 197.458 9.48664 198.767 9.22947L198.478 7.75762C197.162 8.01626 195.848 8.28468 194.538 8.56273L194.85 10.0301ZM202.7 8.48734C204.014 8.2498 205.33 8.02215 206.649 7.80456L206.405 6.32457C205.079 6.54343 203.755 6.77237 202.433 7.01127L202.7 8.48734ZM210.601 7.18369C211.92 6.98705 213.24 6.80051 214.563 6.62424L214.365 5.13739C213.034 5.31469 211.706 5.50232 210.38 5.7001L210.601 7.18369ZM218.537 6.12635C219.862 5.97092 221.189 5.82587 222.518 5.69135L222.367 4.19898C221.03 4.3343 219.695 4.48021 218.362 4.63656L218.537 6.12635ZM226.499 5.32054C227.828 5.2075 229.158 5.10509 230.49 5.01344L230.387 3.51697C229.047 3.60918 227.709 3.71222 226.372 3.82594L226.499 5.32054ZM234.49 4.77092C235.82 4.7012 237.152 4.64231 238.484 4.59439L238.43 3.09536C237.089 3.14357 235.75 3.20283 234.412 3.27298L234.49 4.77092ZM242.483 4.4838C243.817 4.45798 245.152 4.44328 246.488 4.43983L246.484 2.93984C245.139 2.94331 243.796 2.9581 242.454 2.98408L242.483 4.4838ZM250.491 4.46326C251.822 4.4823 253.154 4.51263 254.486 4.55438L254.533 3.05511C253.192 3.0131 251.852 2.98257 250.513 2.96341L250.491 4.46326ZM258.485 4.71401C259.819 4.77875 261.153 4.85503 262.488 4.94302L262.587 3.44627C261.243 3.3577 259.9 3.28092 258.558 3.21577L258.485 4.71401ZM266.471 5.24043C267.798 5.35114 269.125 5.47356 270.452 5.6078L270.603 4.11542C269.267 3.98029 267.931 3.85707 266.596 3.74563L266.471 5.24043ZM274.435 6.0462C275.758 6.20382 277.082 6.37334 278.406 6.55493L278.61 5.06884C277.277 4.88605 275.945 4.71539 274.612 4.55672L274.435 6.0462ZM282.356 7.13283C283.672 7.33747 284.989 7.55418 286.305 7.7831L286.562 6.3053C285.237 6.07483 283.912 5.85666 282.586 5.65062L282.356 7.13283ZM290.251 8.50658C291.555 8.758 292.859 9.02155 294.163 9.29738L294.473 7.82988C293.161 7.55218 291.848 7.28682 290.535 7.0337L290.251 8.50658ZM298.063 10.1602C299.363 10.4602 300.662 10.7725 301.96 11.0973L302.324 9.64212C301.017 9.3151 299.709 9.00064 298.401 8.69864L298.063 10.1602ZM305.839 12.106C307.119 12.4516 308.399 12.8096 309.677 13.18L310.094 11.7392C308.807 11.3663 307.519 11.0059 306.23 10.6579L305.839 12.106ZM313.508 14.3286C314.784 14.724 316.059 15.132 317.332 15.5527L317.803 14.1285C316.52 13.7048 315.237 13.294 313.952 12.8958L313.508 14.3286ZM321.112 16.8405C322.363 17.2799 323.614 17.7318 324.863 18.1963L325.385 16.7904C324.128 16.3227 322.869 15.8677 321.609 15.4252L321.112 16.8405ZM328.604 19.6276C329.85 20.1174 331.094 20.6199 332.336 21.1352L332.911 19.7497C331.66 19.2308 330.407 18.7248 329.153 18.2317L328.604 19.6276ZM335.993 22.6918C337.209 23.2228 338.424 23.7664 339.637 24.3226L340.262 22.9591C339.041 22.3991 337.818 21.8518 336.593 21.317L335.993 22.6918ZM343.269 26.0291C344.472 26.6077 345.673 27.199 346.872 27.8029L347.547 26.4633C346.34 25.8552 345.131 25.26 343.92 24.6774L343.269 26.0291ZM350.404 29.6229C351.579 30.2419 352.752 30.8734 353.923 31.5174L354.646 30.2031C353.467 29.5548 352.286 28.919 351.103 28.2957L350.404 29.6229ZM357.429 33.4872C358.583 34.1496 359.735 34.8243 360.884 35.5115L361.654 34.224C360.497 33.5322 359.337 32.853 358.175 32.1862L357.429 33.4872ZM364.277 37.5808C365.405 38.2827 366.531 38.997 367.655 39.7236L368.469 38.464C367.339 37.7326 366.205 37.0137 365.069 36.3071L364.277 37.5808ZM371.018 41.9405C372.12 42.6812 373.22 43.434 374.317 44.199L375.175 42.9686C374.071 42.1986 372.964 41.441 371.854 40.6954L371.018 41.9405ZM377.556 46.4989C378.633 47.2775 379.708 48.0681 380.779 48.8707L381.679 47.6701C380.6 46.8624 379.519 46.0668 378.435 45.2833L377.556 46.4989Z" fill="#E1E1E1"/>
</g>
<defs>
<clipPath id="clip0_251_2506">
<rect width="386" height="151" fill="white"/>
</clipPath>
</defs>
</svg>
