<svg width="40" height="40" viewBox="0 0 40 40" fill="none" xmlns="http://www.w3.org/2000/svg">
<path d="M37.5172 12.8047C35.9159 10.7606 33.6461 9.29273 31.1258 8.67133L29.8234 8.35031C29.5096 8.27273 29.1917 8.46477 29.1143 8.77898C29.0369 9.09313 29.2288 9.4107 29.543 9.48812L30.8453 9.80914C33.1124 10.368 35.1541 11.6886 36.5946 13.5273C38.0347 15.3658 38.8277 17.6647 38.8277 20.0004C38.8277 24.8414 35.5452 29.0322 30.8452 30.1916L16.3238 33.7734V32.0999C16.3238 31.7762 16.0615 31.514 15.7379 31.514C15.4143 31.514 15.152 31.7762 15.152 32.0999V35.784C15.152 35.896 15.0608 35.9871 14.9488 35.9871H12.7395C12.627 35.9871 12.5355 35.896 12.5355 35.784V4.2168C12.5355 4.10477 12.627 4.01367 12.7395 4.01367H14.9488C15.0609 4.01367 15.152 4.10477 15.152 4.2168V29.3655C15.152 29.6892 15.4143 29.9515 15.7379 29.9515C16.0615 29.9515 16.3238 29.6892 16.3238 29.3655V6.22727L26.8882 8.83328C26.9353 8.84492 26.9825 8.85055 27.029 8.85055C27.2922 8.85055 27.5316 8.67187 27.5973 8.40477C27.6748 8.09062 27.483 7.77305 27.1688 7.69563L16.3238 5.02039V4.2168C16.3238 3.45867 15.707 2.8418 14.9488 2.8418H12.7395C11.9809 2.8418 11.3637 3.45867 11.3637 4.2168V4.93375C9.22836 5.22117 7.57617 7.05445 7.57617 9.26758V12.4116C7.57617 12.7353 7.83852 12.9976 8.16211 12.9976C8.4857 12.9976 8.74805 12.7353 8.74805 12.4116V9.26758C8.74805 7.70195 9.87727 6.39617 11.3637 6.11992V33.8809C9.87734 33.6046 8.74805 32.2988 8.74805 30.7332V15.146C8.74805 14.8223 8.4857 14.5601 8.16211 14.5601C7.83852 14.5601 7.57617 14.8223 7.57617 15.146V30.7332C7.57617 32.9463 9.22836 34.7796 11.3637 35.067V35.784C11.3637 36.5421 11.9809 37.159 12.7395 37.159H14.9488C15.707 37.159 16.3238 36.5421 16.3238 35.784V34.9805L31.1259 31.3294C36.3506 30.0405 39.9996 25.3819 39.9996 20.0004C39.9996 17.4039 39.118 14.8484 37.5172 12.8047Z" fill="white"/>
<path d="M5.63672 8.68164H0.585938C0.262344 8.68164 0 8.94391 0 9.26758C0 9.59125 0.262344 9.85352 0.585938 9.85352H5.63672C5.96031 9.85352 6.22266 9.59125 6.22266 9.26758C6.22266 8.94391 5.96031 8.68164 5.63672 8.68164Z" fill="white"/>
<path d="M5.63648 12.5215H2.16406C1.84047 12.5215 1.57812 12.7837 1.57812 13.1074C1.57812 13.4311 1.84047 13.6934 2.16406 13.6934H5.63648C5.96008 13.6934 6.22242 13.4311 6.22242 13.1074C6.22242 12.7837 5.96008 12.5215 5.63648 12.5215Z" fill="white"/>
<path d="M5.63672 16.3613H0.585938C0.262344 16.3613 0 16.6236 0 16.9473C0 17.2709 0.262344 17.5332 0.585938 17.5332H5.63672C5.96031 17.5332 6.22266 17.2709 6.22266 16.9473C6.22266 16.6236 5.96031 16.3613 5.63672 16.3613Z" fill="white"/>
<path d="M5.63648 20.2021H2.16406C1.84047 20.2021 1.57812 20.4644 1.57812 20.7881C1.57812 21.1118 1.84047 21.374 2.16406 21.374H5.63648C5.96008 21.374 6.22242 21.1118 6.22242 20.7881C6.22242 20.4644 5.96008 20.2021 5.63648 20.2021Z" fill="white"/>
<path d="M5.63672 24.042H0.585938C0.262344 24.042 0 24.3043 0 24.6279C0 24.9516 0.262344 25.2139 0.585938 25.2139H5.63672C5.96031 25.2139 6.22266 24.9516 6.22266 24.6279C6.22266 24.3043 5.96031 24.042 5.63672 24.042Z" fill="white"/>
<path d="M5.63648 27.8828H2.16406C1.84047 27.8828 1.57812 28.1451 1.57812 28.4688C1.57812 28.7924 1.84047 29.0547 2.16406 29.0547H5.63648C5.96008 29.0547 6.22242 28.7924 6.22242 28.4688C6.22242 28.1451 5.96008 27.8828 5.63648 27.8828Z" fill="white"/>
<path d="M5.63672 31.7227H0.585938C0.262344 31.7227 0 31.9849 0 32.3086C0 32.6323 0.262344 32.8945 0.585938 32.8945H5.63672C5.96031 32.8945 6.22266 32.6323 6.22266 32.3086C6.22266 31.9849 5.96031 31.7227 5.63672 31.7227Z" fill="white"/>
<path d="M30.5752 23.1113C32.2908 23.1113 33.6865 21.7156 33.6865 20C33.6865 18.2844 32.2908 16.8887 30.5752 16.8887C28.8596 16.8887 27.4639 18.2844 27.4639 20C27.4639 21.7156 28.8596 23.1113 30.5752 23.1113ZM30.5752 18.0605C31.6446 18.0605 32.5146 18.9306 32.5146 20C32.5146 21.0694 31.6446 21.9395 30.5752 21.9395C29.5058 21.9395 28.6357 21.0694 28.6357 20C28.6357 18.9306 29.5058 18.0605 30.5752 18.0605Z" fill="white"/>
<path d="M30.5753 20.592C30.9022 20.592 31.1671 20.327 31.1671 20.0001C31.1671 19.6732 30.9022 19.4082 30.5753 19.4082C30.2484 19.4082 29.9834 19.6732 29.9834 20.0001C29.9834 20.327 30.2484 20.592 30.5753 20.592Z" fill="white"/>
</svg>
