<svg width="40" height="40" viewBox="0 0 40 40" fill="none" xmlns="http://www.w3.org/2000/svg">
<g clip-path="url(#clip0_275_1145)">
<path d="M32.1082 7.73476V4.21625C32.1082 3.89258 31.8458 3.63031 31.5222 3.63031C31.1986 3.63031 30.9363 3.89258 30.9363 4.21625V7.73476C30.7166 7.9082 30.5752 8.17625 30.5752 8.47781C30.5752 9.00086 30.9992 9.42484 31.5222 9.42484C32.0453 9.42484 32.4693 9.00086 32.4693 8.47781C32.4693 8.17625 32.3278 7.9082 32.1082 7.73476Z" fill="white"/>
<path d="M31.5222 0H31.5221H31.522C31.522 0 31.5219 0 31.5218 0C26.8473 0 23.0445 3.80328 23.0445 8.47812C23.0445 12.5179 25.8849 15.9062 29.6734 16.752V27.8174H18.5341V7.84648C18.5341 5.78273 16.8552 4.10383 14.7915 4.10383H3.74273C1.67898 4.10383 0 5.78273 0 7.84648V36.2573C7.8125e-05 38.3211 1.67898 40 3.74273 40H14.7914C16.8552 40 18.5341 38.3211 18.5341 36.2573V31.5148H25.2484C25.572 31.5148 25.8343 31.2526 25.8343 30.9289C25.8343 30.6052 25.572 30.343 25.2484 30.343H18.5341V28.9893H29.9438C30.4409 28.9893 30.8454 28.5848 30.8454 28.0877V16.9285C31.0686 16.9462 31.2941 16.9555 31.5219 16.9555C31.7482 16.9555 31.9741 16.9455 32.1992 16.9274V29.0344C32.1992 29.7559 31.6122 30.343 30.8906 30.343H27.9828C27.6592 30.343 27.3969 30.6052 27.3969 30.9289C27.3969 31.2526 27.6592 31.5148 27.9828 31.5148H30.8906C32.2584 31.5148 33.3711 30.4021 33.3711 29.0344V16.7508C34.1034 16.5876 34.8127 16.3288 35.4745 15.9791C35.7607 15.8279 35.87 15.4734 35.7188 15.1873C35.5676 14.9012 35.2131 14.7917 34.927 14.943C33.8862 15.493 32.7087 15.7837 31.5219 15.7837C28.6057 15.7837 26.0835 14.0659 24.913 11.5893H38.1318C37.8244 12.2418 37.4207 12.8511 36.9255 13.3945C36.7075 13.6337 36.7247 14.0042 36.9639 14.2222C37.203 14.4402 37.5736 14.423 37.7916 14.1838C39.2157 12.6212 40 10.5949 40 8.4782C39.9999 3.80336 36.1969 0.000234375 31.5222 0ZM17.3623 32.4273L15.4841 33.4707C15.382 33.5274 15.2718 33.5562 15.1566 33.5562C14.9103 33.5562 14.6832 33.4227 14.5638 33.2078C14.476 33.0498 14.455 32.867 14.5047 32.6932C14.5544 32.5194 14.6687 32.3754 14.8267 32.2877L17.3623 30.8791V32.4273ZM17.3623 13.1053L15.4841 14.1487C15.382 14.2054 15.2718 14.2341 15.1566 14.2341C14.9103 14.2341 14.6832 14.1006 14.5638 13.8858C14.476 13.7278 14.455 13.5451 14.5047 13.3712C14.5544 13.1973 14.6687 13.0534 14.8267 12.9656L17.3623 11.557V13.1053ZM17.3623 19.5459L15.4841 20.5893C15.382 20.646 15.2718 20.6748 15.1566 20.6748C14.9103 20.6748 14.6832 20.5413 14.5638 20.3265C14.476 20.1685 14.455 19.9857 14.5047 19.8119C14.5544 19.638 14.6687 19.494 14.8267 19.4062L17.3623 17.9977V19.5459ZM17.3623 25.9866L15.4841 27.03C15.382 27.0867 15.2718 27.1155 15.1566 27.1155C14.9103 27.1155 14.6832 26.982 14.5638 26.7671C14.476 26.6091 14.455 26.4263 14.5047 26.2525C14.5544 26.0786 14.6687 25.9346 14.8267 25.8469L17.3623 24.4383V25.9866ZM1.17195 30.8742L3.71617 32.2876C3.87414 32.3753 3.98852 32.5194 4.0382 32.6931C4.08789 32.867 4.06687 33.0497 3.97906 33.2077C3.85969 33.4226 3.63258 33.5561 3.38633 33.5561C3.27102 33.5561 3.16078 33.5273 3.05883 33.4707L1.17203 32.4225L1.17195 30.8742ZM1.17195 24.4335L3.71609 25.8469C3.87406 25.9346 3.98852 26.0788 4.03813 26.2525C4.08781 26.4263 4.0668 26.609 3.97898 26.7671C3.85961 26.982 3.6325 27.1155 3.38625 27.1155C3.27094 27.1155 3.1607 27.0867 3.05875 27.0301L1.17195 25.9819V24.4335ZM1.17195 17.9928L3.71609 19.4062C3.87406 19.4939 3.98852 19.638 4.03813 19.8118C4.08781 19.9856 4.0668 20.1683 3.97898 20.3264C3.85961 20.5413 3.63242 20.6747 3.38625 20.6747C3.27094 20.6747 3.1607 20.6459 3.05867 20.5892L1.17195 19.541V17.9928ZM1.17195 11.5522L3.71609 12.9655C3.87406 13.0533 3.98852 13.1974 4.03813 13.3712C4.08781 13.545 4.0668 13.7277 3.97898 13.8857C3.85961 14.1005 3.6325 14.2341 3.38625 14.2341C3.27094 14.2341 3.1607 14.2053 3.05867 14.1486L1.17195 13.1004V11.5522ZM1.17195 36.2573V33.763L2.48969 34.4952C2.76398 34.6475 3.07398 34.728 3.38633 34.728C4.05789 34.728 4.6775 34.3635 5.00344 33.7769C5.24328 33.3453 5.3007 32.846 5.165 32.3713C5.02938 31.8964 4.71695 31.5029 4.28523 31.263L1.17195 29.5335V27.3223L2.48969 28.0545C2.76398 28.2068 3.07398 28.2873 3.38633 28.2873C4.05789 28.2873 4.6775 27.9228 5.00344 27.3362C5.24328 26.9045 5.30062 26.4053 5.165 25.9305C5.02938 25.4557 4.71695 25.0622 4.28523 24.8223L1.17195 23.0927V20.8816L2.48969 21.6137C2.76398 21.766 3.07398 21.8465 3.38633 21.8465C4.05781 21.8465 4.6775 21.4821 5.00344 20.8955C5.24328 20.4638 5.30062 19.9646 5.165 19.4898C5.02938 19.015 4.71695 18.6215 4.28523 18.3816L1.17195 16.652V14.4409L2.48969 15.173C2.76398 15.3253 3.07398 15.4058 3.38633 15.4058C4.05789 15.4058 4.6775 15.0413 5.00344 14.4547C5.24328 14.0231 5.3007 13.5239 5.165 13.0491C5.02938 12.5743 4.71695 12.1808 4.28523 11.9409L1.17195 10.2113V7.84625C1.17195 6.42867 2.32523 5.27547 3.74281 5.27547H7.41875V15.2016C7.41875 15.5252 7.68109 15.7875 8.00469 15.7875C8.32828 15.7875 8.59062 15.5252 8.59062 15.2016V5.27563H9.94391V38.8281H8.59062V17.9359C8.59062 17.6123 8.32828 17.35 8.00469 17.35C7.68109 17.35 7.41875 17.6123 7.41875 17.9359V38.8281H3.74273C2.32516 38.8281 1.17195 37.6748 1.17195 36.2573ZM14.7914 38.8281H11.1157V5.27563H14.7914C16.209 5.27563 17.3622 6.42891 17.3622 7.84641V10.2163L14.2576 11.941C13.8259 12.1809 13.5135 12.5744 13.3778 13.0492C13.2421 13.5241 13.2995 14.0233 13.5394 14.4548C13.8653 15.0415 14.485 15.4059 15.1565 15.4059C15.4688 15.4059 15.7788 15.3255 16.0531 15.1731L17.3622 14.4459V16.657L14.2576 18.3817C13.8259 18.6216 13.5135 19.0151 13.3778 19.4899C13.2422 19.9648 13.2995 20.464 13.5394 20.8956C13.8653 21.4823 14.485 21.8466 15.1565 21.8466C15.4688 21.8466 15.7788 21.7662 16.0531 21.6138L17.3622 20.8866V23.0977L14.2576 24.8224C13.8259 25.0623 13.5135 25.4558 13.3778 25.9306C13.2422 26.4055 13.2995 26.9047 13.5394 27.3363C13.8653 27.923 14.485 28.2874 15.1565 28.2874C15.4688 28.2874 15.7788 28.207 16.0532 28.0545L17.3622 27.3273V29.5384L14.2576 31.2632C13.8259 31.503 13.5134 31.8965 13.3778 32.3714C13.2422 32.8462 13.2995 33.3454 13.5394 33.777C13.8653 34.3637 14.485 34.7281 15.1565 34.7281C15.4688 34.7281 15.7788 34.6477 16.0532 34.4952L17.3622 33.768V36.2574C17.3623 37.6748 16.209 38.8281 14.7914 38.8281ZM24.4781 10.4173C24.3578 9.98102 24.277 9.52852 24.2399 9.06383H24.7352C25.0587 9.06383 25.3211 8.80156 25.3211 8.47789C25.3211 8.15422 25.0587 7.89195 24.7352 7.89195H24.24C24.3122 6.98672 24.5502 6.1275 24.9234 5.34461L25.3515 5.5918C25.4438 5.64508 25.5445 5.67039 25.6439 5.67039C25.8464 5.67039 26.0434 5.56531 26.1519 5.37734C26.3137 5.09711 26.2177 4.73875 25.9374 4.57695L25.5111 4.33078C26.0148 3.60281 26.6471 2.97047 27.3751 2.46664L27.6213 2.89313C27.7298 3.08109 27.9268 3.18617 28.1293 3.18617C28.2287 3.18617 28.3295 3.16086 28.4217 3.10758C28.702 2.94578 28.798 2.58742 28.6362 2.30719L28.3889 1.87883C29.1718 1.50555 30.031 1.26758 30.9363 1.19539V1.69086C30.9363 2.01453 31.1987 2.2768 31.5223 2.2768C31.8459 2.2768 32.1082 2.01453 32.1082 1.69086V1.19547C33.0135 1.26766 33.8727 1.50563 34.6555 1.87891L34.4084 2.30711C34.2466 2.58742 34.3426 2.94578 34.6228 3.1075C34.7152 3.16086 34.8159 3.18609 34.9152 3.18609C35.1177 3.18609 35.3147 3.08102 35.4232 2.89305L35.6694 2.46664C36.3973 2.97039 37.0296 3.60273 37.5334 4.33063L37.107 4.5768C36.8268 4.73859 36.7308 5.09695 36.8926 5.37719C37.0011 5.56516 37.198 5.67023 37.4005 5.67023C37.4999 5.67023 37.6007 5.64492 37.693 5.59164L38.1212 5.34437C38.4945 6.12727 38.7324 6.98648 38.8046 7.8918H38.3092C37.9856 7.8918 37.7233 8.15406 37.7233 8.47773C37.7233 8.80141 37.9856 9.06367 38.3092 9.06367H38.8032C38.7664 9.52398 38.687 9.97687 38.5659 10.4172H24.4781V10.4173Z" fill="white"/>
</g>
<defs>
<clipPath id="clip0_275_1145">
<rect width="40" height="40" fill="white"/>
</clipPath>
</defs>
</svg>
