<svg width="40" height="40" viewBox="0 0 40 40" fill="none" xmlns="http://www.w3.org/2000/svg">
<g clip-path="url(#clip0_275_1119)">
<path d="M20.3155 2.52539H4.5318C3.86055 2.52539 3.31445 3.07148 3.31445 3.74273V8.79352C3.31445 9.46469 3.86055 10.0108 4.5318 10.0108H20.3155C20.9868 10.0108 21.5329 9.46469 21.5329 8.79352V3.74273C21.5329 3.07148 20.9868 2.52539 20.3155 2.52539ZM20.361 8.79352C20.361 8.81852 20.3406 8.83891 20.3155 8.83891H4.5318C4.50672 8.83891 4.48633 8.81852 4.48633 8.79352V3.74273C4.48633 3.71766 4.50672 3.69727 4.5318 3.69727H20.3155C20.3406 3.69727 20.361 3.71766 20.361 3.74273V8.79352Z" fill="white"/>
<path d="M19.7257 11.3643H18.4629C17.4436 11.3643 16.6143 12.1936 16.6143 13.213C16.6143 14.2323 17.4436 15.0616 18.4629 15.0616H19.7257C20.745 15.0616 21.5743 14.2323 21.5743 13.213C21.5743 12.1936 20.745 11.3643 19.7257 11.3643ZM19.7257 13.8898H18.4629C18.0898 13.8898 17.7861 13.5862 17.7861 13.213C17.7861 12.8398 18.0897 12.5362 18.4629 12.5362H19.7257C20.0988 12.5362 20.4025 12.8398 20.4025 13.213C20.4025 13.5862 20.0988 13.8898 19.7257 13.8898Z" fill="white"/>
<path d="M5.12211 15.0616H6.38484C7.40414 15.0616 8.23352 14.2323 8.23352 13.213C8.23352 12.1936 7.40422 11.3643 6.38484 11.3643H5.12211C4.10281 11.3643 3.27344 12.1936 3.27344 13.213C3.27344 14.2323 4.10281 15.0616 5.12211 15.0616ZM5.12211 12.5362H6.38484C6.75797 12.5362 7.06164 12.8398 7.06164 13.213C7.06164 13.5862 6.75805 13.8898 6.38484 13.8898H5.12211C4.74898 13.8898 4.44531 13.5862 4.44531 13.213C4.44531 12.8398 4.74898 12.5362 5.12211 12.5362Z" fill="white"/>
<path d="M12.4235 33.3708C16.6631 33.3708 20.1122 29.9217 20.1122 25.6821C20.1122 21.4425 16.6631 17.9934 12.4235 17.9934C8.18393 17.9934 4.73486 21.4426 4.73486 25.6821C4.73486 29.9216 8.184 33.3708 12.4235 33.3708ZM10.5749 29.2425C9.25596 28.5721 8.38643 27.202 8.38643 25.6822C8.38643 24.1623 9.25596 22.7922 10.5749 22.1219V29.2425ZM11.7468 31.5222V19.8421C11.7468 19.469 12.0504 19.1653 12.4236 19.1653C12.7968 19.1653 13.1004 19.4689 13.1004 19.8421V31.5221C13.1004 31.8952 12.7968 32.1989 12.4236 32.1989C12.0504 32.1989 11.7468 31.8953 11.7468 31.5222ZM14.2722 22.1711C15.5374 22.8594 16.3692 24.2077 16.3692 25.6822C16.3692 27.1566 15.5374 28.5049 14.2722 29.1932V22.1711ZM18.9403 25.6822C18.9403 28.6513 16.9436 31.1613 14.223 31.9443C14.2548 31.8086 14.2722 31.6674 14.2722 31.5222V30.4844C16.2171 29.7131 17.541 27.7982 17.541 25.6822C17.541 23.5662 16.2171 21.6513 14.2722 20.8799V19.8421C14.2722 19.6969 14.2549 19.5557 14.223 19.42C16.9436 20.2031 18.9403 22.713 18.9403 25.6822ZM10.6241 19.4201C10.5923 19.5558 10.5749 19.697 10.5749 19.8422V20.844C8.57557 21.5905 7.21447 23.5192 7.21447 25.6822C7.21447 27.8452 8.57557 29.7739 10.5749 30.5204V31.5222C10.5749 31.6674 10.5922 31.8086 10.6241 31.9443C7.90346 31.1613 5.90674 28.6513 5.90674 25.6822C5.90674 22.713 7.90346 20.2031 10.6241 19.4201Z" fill="white"/>
<path d="M13.0098 16.0541V15.2648C13.0098 14.9413 12.7474 14.6789 12.4238 14.6789C12.1002 14.6789 11.8379 14.9413 11.8379 15.2648V16.0541C11.8379 16.3777 12.1002 16.64 12.4238 16.64C12.7474 16.64 13.0098 16.3777 13.0098 16.0541Z" fill="white"/>
<path d="M9.131 17.2208C9.19757 17.2208 9.26522 17.2094 9.33132 17.1853C9.63546 17.0746 9.79217 16.7384 9.68155 16.4343L9.41163 15.6927C9.30092 15.3885 8.96467 15.2317 8.66061 15.3424C8.35647 15.4531 8.19975 15.7894 8.31038 16.0934L8.5803 16.8351C8.66702 17.073 8.89171 17.2208 9.131 17.2208Z" fill="white"/>
<path d="M6.23513 18.8926C6.36802 18.8926 6.50169 18.8476 6.61146 18.7555C6.85935 18.5475 6.8917 18.1779 6.68365 17.93L6.17638 17.3255C5.96834 17.0776 5.59873 17.0452 5.35091 17.2533C5.10302 17.4613 5.07068 17.8309 5.27873 18.0788L5.78599 18.6833C5.90185 18.8214 6.06787 18.8926 6.23513 18.8926Z" fill="white"/>
<path d="M15.7165 17.2208C15.9558 17.2208 16.1806 17.073 16.2671 16.8351L16.537 16.0934C16.6478 15.7894 16.491 15.4531 16.1868 15.3424C15.8828 15.2319 15.5465 15.3885 15.4358 15.6927L15.1659 16.4343C15.0552 16.7384 15.212 17.0746 15.5161 17.1853C15.5823 17.2094 15.6499 17.2208 15.7165 17.2208Z" fill="white"/>
<path d="M18.6125 18.8926C18.7797 18.8926 18.9458 18.8214 19.0616 18.6833L19.5689 18.0787C19.7769 17.8309 19.7446 17.4612 19.4967 17.2533C19.2487 17.0452 18.8792 17.0775 18.6712 17.3255L18.164 17.93C17.9559 18.1779 17.9883 18.5475 18.2362 18.7555C18.3459 18.8476 18.4796 18.8926 18.6125 18.8926Z" fill="white"/>
<path d="M19.8423 33.3708H20.9472C21.2708 33.3708 21.5331 33.1084 21.5331 32.7848C21.5331 32.4612 21.2708 32.1989 20.9472 32.1989H19.8423C19.5187 32.1989 19.2563 32.4612 19.2563 32.7848C19.2563 33.1084 19.5187 33.3708 19.8423 33.3708Z" fill="white"/>
<path d="M3.90039 32.1989C3.5768 32.1989 3.31445 32.4612 3.31445 32.7848C3.31445 33.1084 3.5768 33.3708 3.90039 33.3708H5.00531C5.32891 33.3708 5.59125 33.1084 5.59125 32.7848C5.59125 32.4612 5.32891 32.1989 5.00531 32.1989H3.90039Z" fill="white"/>
<path d="M38.6248 12.7848H37.948V8.95133C37.948 8.28016 37.402 7.73406 36.7307 7.73406H36.6853V3.26922C36.6853 2.94563 36.423 2.68328 36.0994 2.68328C35.7758 2.68328 35.5134 2.94563 35.5134 3.26922V7.73406H35.468C34.7968 7.73406 34.2507 8.28016 34.2507 8.95133V12.7848H33.5739C33.2503 12.7848 32.988 13.0472 32.988 13.3708C32.988 13.6944 33.2503 13.9567 33.5739 13.9567H33.6194V25.682C33.6194 26.8479 34.4279 27.828 35.5134 28.092V36.8886C35.5134 37.958 34.6433 38.828 33.5739 38.828H28.428C28.8538 38.2957 29.1091 37.6216 29.1091 36.8886V28.092C30.1946 27.8279 31.003 26.8479 31.003 25.682V13.9567H31.0486C31.3722 13.9567 31.6345 13.6944 31.6345 13.3708C31.6345 13.0472 31.3722 12.7848 31.0486 12.7848H30.3718V8.95133C30.3718 8.28016 29.8257 7.73406 29.1545 7.73406H29.1091V3.26922C29.1091 2.94563 28.8467 2.68328 28.5231 2.68328C28.1995 2.68328 27.9372 2.94563 27.9372 3.26922V7.73406H27.8917C27.2205 7.73406 26.6745 8.28016 26.6745 8.95133V12.7848H25.9977C25.6741 12.7848 25.4117 13.0472 25.4117 13.3708C25.4117 13.6944 25.6741 13.9567 25.9977 13.9567H26.0428V20.8705C26.0428 21.1941 26.3052 21.4564 26.6287 21.4564C26.9523 21.4564 27.2147 21.1941 27.2147 20.8705V13.957H29.8311V25.682C29.8311 26.4025 29.2462 26.9887 28.5266 26.9905C28.5254 26.9905 28.5242 26.9903 28.523 26.9903C28.522 26.9903 28.5209 26.9905 28.5198 26.9905C27.7998 26.9886 27.2147 26.4024 27.2147 25.682V23.6049C27.2147 23.2813 26.9523 23.019 26.6287 23.019C26.3052 23.019 26.0428 23.2813 26.0428 23.6049V25.682C26.0428 26.8478 26.8515 27.8278 27.9372 28.092V36.8887C27.9372 37.958 27.0671 38.8281 25.9977 38.8281H22.8409C21.7716 38.8281 20.9015 37.958 20.9015 36.8887V35.8961H21.8937C23.0873 35.8961 24.0585 34.9253 24.0585 33.732V2.16406C24.0585 0.970781 23.0873 0 21.8937 0H2.95312C1.75992 0 0.789062 0.970781 0.789062 2.16406V6.47891C0.789062 6.8025 1.05141 7.06484 1.375 7.06484C1.69859 7.06484 1.96094 6.8025 1.96094 6.47891V2.16406C1.96094 1.61695 2.40602 1.17188 2.95312 1.17188H21.8937C22.4412 1.17188 22.8867 1.61695 22.8867 2.16406V33.732C22.8867 34.2791 22.4412 34.7242 21.8937 34.7242H2.95312C2.40609 34.7242 1.96094 34.2791 1.96094 33.732V9.21328C1.96094 8.88969 1.69859 8.62734 1.375 8.62734C1.05141 8.62734 0.789062 8.88969 0.789062 9.21328V33.732C0.789062 34.9253 1.75984 35.8961 2.95312 35.8961H19.7298V36.8887C19.7298 38.6042 21.1255 40 22.8411 40H33.5741C35.2896 40 36.6854 38.6042 36.6854 36.8887V28.0919C37.771 27.8277 38.5797 26.8478 38.5797 25.682V17.9539C38.5797 17.6303 38.3173 17.368 37.9938 17.368C37.6702 17.368 37.4078 17.6303 37.4078 17.9539V25.682C37.4078 26.4024 36.8227 26.9885 36.1027 26.9905C36.1016 26.9905 36.1005 26.9903 36.0995 26.9903C36.0983 26.9903 36.0971 26.9905 36.0959 26.9905C35.3763 26.9887 34.7914 26.4025 34.7914 25.682V13.957H37.4078V15.2195C37.4078 15.5431 37.6702 15.8055 37.9938 15.8055C38.3173 15.8055 38.5797 15.5431 38.5797 15.2195V13.9567H38.6249C38.9485 13.9567 39.2109 13.6944 39.2109 13.3708C39.2109 13.0472 38.9484 12.7848 38.6248 12.7848ZM27.8465 8.95133C27.8465 8.92633 27.8669 8.90594 27.8919 8.90594H29.1546C29.1797 8.90594 29.2001 8.92633 29.2001 8.95133V12.7848H27.8466V8.95133H27.8465ZM35.4227 8.95133C35.4227 8.92633 35.443 8.90594 35.468 8.90594H36.7308C36.7559 8.90594 36.7762 8.92633 36.7762 8.95133V12.7848H35.4227L35.4227 8.95133Z" fill="white"/>
</g>
<defs>
<clipPath id="clip0_275_1119">
<rect width="40" height="40" fill="white"/>
</clipPath>
</defs>
</svg>
