<svg width="40" height="40" viewBox="0 0 40 40" fill="none" xmlns="http://www.w3.org/2000/svg">
<path d="M3.48474 10.755C3.95796 10.6782 4.27939 10.2324 4.20268 9.75922C4.12596 9.286 3.68016 8.96456 3.20694 9.04128C2.73372 9.11799 2.41229 9.5638 2.489 10.037C2.56571 10.5102 3.01152 10.8317 3.48474 10.755Z" fill="white"/>
<path d="M39.4141 12.2C39.7377 12.2 40 11.9377 40 11.6141V8.00468C40 6.81101 39.0292 5.83984 37.8359 5.83984L31.9503 5.84V4.53187C31.9503 3.86062 31.4042 3.31461 30.733 3.31461H29.4703C28.7991 3.31461 28.253 3.86062 28.253 4.53187V5.84H11.747V4.53187C11.747 3.86062 11.2009 3.31461 10.5297 3.31461H9.26703C8.59578 3.31461 8.04969 3.86062 8.04969 4.53187V5.84H6.69617V3.90054C6.69617 3.57687 6.43391 3.31461 6.11023 3.31461H1.37516C1.05148 3.31461 0.789219 3.57687 0.789219 3.90054C0.789219 4.22422 1.05148 4.48648 1.37516 4.48648H2.36758V5.83984H2.16406C0.970781 5.83984 0 6.81101 0 8.00468V16.0977C0 16.6757 0.136719 17.2548 0.395469 17.7723L1.30703 19.5952C1.48445 19.9507 1.5782 20.3484 1.5782 20.7454V22.9969C1.5782 23.3206 1.84047 23.5829 2.16414 23.5829C2.48781 23.5829 2.75008 23.3206 2.75008 22.9969V20.7454C2.75008 20.1677 2.61367 19.5891 2.35539 19.0716L1.44359 17.2482C1.26586 16.8926 1.17188 16.4948 1.17188 16.0977V8.00468C1.17188 7.45711 1.61695 7.01172 2.16406 7.01172H5.5243V32.9883H3.74297C3.19547 32.9883 2.75 32.5429 2.75 31.9953V25.7312C2.75 25.4076 2.48773 25.1453 2.16406 25.1453C1.84039 25.1453 1.57812 25.4076 1.57812 25.7312V31.9953C1.57812 33.189 2.5493 34.1602 3.74297 34.1602L8.04969 34.16V35.4681C8.04969 36.1394 8.59578 36.6854 9.26703 36.6854H10.5297C11.2009 36.6854 11.747 36.1394 11.747 35.4681V34.16H28.253V35.4681C28.253 36.1394 28.799 36.6854 29.4702 36.6854H30.7329C31.4041 36.6854 31.9502 36.1394 31.9502 35.4681V34.16L37.8359 34.1602C39.0291 34.1602 39.9999 33.189 39.9999 31.9953V14.3484C39.9999 14.0248 39.7377 13.7625 39.414 13.7625C39.0903 13.7625 38.828 14.0248 38.828 14.3484V31.9953C38.828 32.5428 38.383 32.9883 37.8359 32.9883H34.4756V7.01172H37.8359C38.383 7.01172 38.8281 7.45718 38.8281 8.00468V11.6141C38.8281 11.9377 39.0904 12.2 39.4141 12.2ZM29.4249 4.53187C29.4249 4.50687 29.4453 4.48648 29.4703 4.48648H30.733C30.758 4.48648 30.7784 4.50687 30.7784 4.53187V5.84H29.4249V4.53187ZM9.22156 4.53187C9.22156 4.50687 9.24195 4.48648 9.26703 4.48648H10.5297C10.5547 4.48648 10.5751 4.50687 10.5751 4.53187V5.84H9.22156V4.53187ZM3.53945 4.48648H5.5243V5.83984H3.53945V4.48648ZM10.5751 35.4681C10.5751 35.4931 10.5547 35.5135 10.5297 35.5135H9.26703C9.24195 35.5135 9.22156 35.4931 9.22156 35.4681V34.16H10.5751V35.4681ZM30.7784 35.4681C30.7784 35.4931 30.758 35.5135 30.733 35.5135H29.4703C29.4453 35.5135 29.4249 35.4931 29.4249 35.4681V34.16H30.7784V35.4681ZM33.3038 32.9881H6.69617V7.01187H33.3038V32.9881Z" fill="white"/>
<path d="M37.4671 10.2296C37.6507 9.78656 37.4404 9.27856 36.9974 9.09493C36.5544 8.9113 36.0464 9.12158 35.8628 9.56459C35.6791 10.0076 35.8894 10.5156 36.3324 10.6992C36.7754 10.8829 37.2834 10.6726 37.4671 10.2296Z" fill="white"/>
<path d="M19.9998 8.36562C19.5068 8.36562 19.0429 8.55758 18.6918 8.9075C18.3433 9.25734 18.1514 9.72133 18.1514 10.2141V22.2477C18.1514 22.5713 18.4136 22.8336 18.7373 22.8336C19.061 22.8336 19.3232 22.5713 19.3232 22.2477V10.2141C19.3232 10.0334 19.3938 9.8632 19.5204 9.73609C19.6489 9.60797 19.8192 9.5375 19.9998 9.5375C20.3729 9.5375 20.6764 9.84101 20.6764 10.2141V29.7859C20.6764 30.159 20.3729 30.4625 19.9998 30.4625C19.6268 30.4625 19.3232 30.159 19.3232 29.7859V24.982C19.3232 24.6584 19.061 24.3961 18.7373 24.3961C18.4136 24.3961 18.1514 24.6584 18.1514 24.982V29.7859C18.1514 30.8052 18.9806 31.6344 19.9998 31.6344C21.019 31.6344 21.8482 30.8052 21.8482 29.7859V10.2141C21.8482 9.19484 21.019 8.36562 19.9998 8.36562Z" fill="white"/>
<path d="M14.9493 8.36539C13.9299 8.36539 13.1006 9.19468 13.1006 10.2141V29.7859C13.1006 30.8053 13.9299 31.6346 14.9493 31.6346C15.9686 31.6346 16.7979 30.8053 16.7979 29.7859V10.2141C16.7979 9.19468 15.9685 8.36539 14.9493 8.36539ZM15.626 29.7859C15.626 30.1591 15.3224 30.4627 14.9493 30.4627C14.5761 30.4627 14.2725 30.1591 14.2725 29.7859V10.2141C14.2725 9.84086 14.5761 9.53726 14.9493 9.53726C15.3224 9.53726 15.626 9.84086 15.626 10.2141V29.7859Z" fill="white"/>
<path d="M9.89848 8.36539C8.8791 8.36539 8.0498 9.19468 8.0498 10.2141V29.7859C8.0498 30.8053 8.8791 31.6346 9.89848 31.6346C10.9178 31.6346 11.7471 30.8053 11.7471 29.7859V10.2141C11.7471 9.19468 10.9178 8.36539 9.89848 8.36539ZM10.5752 29.7859C10.5752 30.1591 10.2716 30.4627 9.89848 30.4627C9.52535 30.4627 9.22168 30.1591 9.22168 29.7859V10.2141C9.22168 9.84086 9.52535 9.53726 9.89848 9.53726C10.2716 9.53726 10.5752 9.84086 10.5752 10.2141V29.7859Z" fill="white"/>
<path d="M25.0507 8.36539C24.0314 8.36539 23.2021 9.19468 23.2021 10.2141V29.7859C23.2021 30.8053 24.0314 31.6346 25.0507 31.6346C26.0701 31.6346 26.8994 30.8053 26.8994 29.7859V10.2141C26.8994 9.19468 26.0701 8.36539 25.0507 8.36539ZM25.7275 29.7859C25.7275 30.1591 25.4239 30.4627 25.0507 30.4627C24.6776 30.4627 24.374 30.1591 24.374 29.7859V10.2141C24.374 9.84086 24.6776 9.53726 25.0507 9.53726C25.4239 9.53726 25.7275 9.84086 25.7275 10.2141V29.7859Z" fill="white"/>
<path d="M28.2529 10.2141V29.7859C28.2529 30.8053 29.0822 31.6346 30.1015 31.6346C31.1209 31.6346 31.9502 30.8053 31.9502 29.7859V10.2141C31.9502 9.19468 31.1209 8.36539 30.1015 8.36539C29.0822 8.36539 28.2529 9.19468 28.2529 10.2141ZM30.7783 10.2141V29.7859C30.7783 30.1591 30.4746 30.4627 30.1015 30.4627C29.7284 30.4627 29.4248 30.1591 29.4248 29.7859V10.2141C29.4248 9.84086 29.7284 9.53726 30.1015 9.53726C30.4746 9.53726 30.7783 9.84086 30.7783 10.2141Z" fill="white"/>
</svg>
